<svg width="1440" height="2880" viewBox="0 0 1440 2880" fill="none" xmlns="http://www.w3.org/2000/svg">
<g clip-path="url(#clip0)">
<rect width="1440" height="2880" fill="white"/>
<path d="M144 576C144 594.91 140.275 613.636 133.039 631.106C125.802 648.577 115.195 664.452 101.823 677.823C88.4517 691.195 72.5773 701.802 55.1064 709.039C37.6355 716.275 18.9104 720 0 720V576H144Z" fill="black"/>
<path d="M144 432C144 450.91 140.275 469.636 133.039 487.106C125.802 504.577 115.195 520.452 101.823 533.823C88.4517 547.195 72.5773 557.802 55.1064 565.039C37.6355 572.275 18.9104 576 0 576V432H144Z" fill="black"/>
<path d="M-6.29444e-06 144C18.9103 144 37.6355 147.725 55.1064 154.961C72.5773 162.198 88.4517 172.805 101.823 186.177C115.195 199.548 125.802 215.423 133.039 232.894C140.275 250.364 144 269.09 144 288L0 288L-6.29444e-06 144Z" fill="black"/>
<path d="M-6.29444e-06 288C18.9103 288 37.6355 291.725 55.1064 298.961C72.5773 306.198 88.4517 316.805 101.823 330.177C115.195 343.548 125.802 359.423 133.039 376.894C140.275 394.364 144 413.09 144 432L0 432L-6.29444e-06 288Z" fill="black"/>
<path d="M144 288C162.91 288 181.636 291.725 199.106 298.961C216.577 306.198 232.452 316.805 245.823 330.177C259.195 343.548 269.802 359.423 277.039 376.894C284.275 394.364 288 413.09 288 432L144 432L144 288Z" fill="black"/>
<path d="M438.5 438.654C454.337 439.403 469.941 442.887 484.619 448.967C501.301 455.877 516.459 466.005 529.227 478.773C541.995 491.541 552.123 506.699 559.033 523.381C565.113 538.059 568.597 553.663 569.346 569.5L438.5 569.5L438.5 438.654Z" fill="black" stroke="black" stroke-width="13"/>
<path d="M432 288C450.91 288 469.636 291.725 487.106 298.961C504.577 306.198 520.452 316.805 533.823 330.177C547.195 343.548 557.802 359.423 565.039 376.894C572.275 394.364 576 413.09 576 432L432 432L432 288Z" fill="black"/>
<path d="M576 0C594.91 -8.26598e-07 613.636 3.72465 631.106 10.9613C648.577 18.198 664.452 28.805 677.823 42.1766C691.195 55.5483 701.802 71.4227 709.039 88.8936C716.275 106.364 720 125.09 720 144L576 144L576 0Z" fill="black"/>
<path d="M432 576C450.91 576 469.636 579.725 487.106 586.961C504.577 594.198 520.452 604.805 533.823 618.177C547.195 631.548 557.802 647.423 565.039 664.894C572.275 682.364 576 701.09 576 720L432 720L432 576Z" fill="black"/>
<path d="M1296 288C1314.91 288 1333.64 291.725 1351.11 298.961C1368.58 306.198 1384.45 316.805 1397.82 330.177C1411.2 343.548 1421.8 359.423 1429.04 376.894C1436.28 394.364 1440 413.09 1440 432L1296 432L1296 288Z" fill="black"/>
<path d="M576 288C594.91 288 613.636 291.725 631.106 298.961C648.577 306.198 664.452 316.805 677.823 330.177C691.195 343.548 701.802 359.423 709.039 376.894C716.275 394.364 720 413.09 720 432L576 432L576 288Z" fill="black"/>
<path d="M720 0C738.91 -8.26598e-07 757.636 3.72465 775.106 10.9613C792.577 18.198 808.452 28.805 821.823 42.1766C835.195 55.5483 845.802 71.4227 853.039 88.8936C860.275 106.364 864 125.09 864 144L720 144L720 0Z" fill="black"/>
<path d="M720 432C720 413.09 723.725 394.364 730.961 376.894C738.198 359.423 748.805 343.548 762.177 330.177C775.548 316.805 791.423 306.198 808.894 298.961C826.364 291.725 845.09 288 864 288L864 432L720 432Z" fill="black"/>
<path d="M0 2016C-1.6532e-06 1997.09 3.72465 1978.36 10.9613 1960.89C18.198 1943.42 28.805 1927.55 42.1766 1914.18C55.5482 1900.8 71.4227 1890.2 88.8936 1882.96C106.364 1875.72 125.09 1872 144 1872L144 2016L0 2016Z" fill="black"/>
<path d="M0 2592C-1.6532e-06 2573.09 3.72465 2554.36 10.9613 2536.89C18.198 2519.42 28.805 2503.55 42.1766 2490.18C55.5482 2476.8 71.4227 2466.2 88.8936 2458.96C106.364 2451.72 125.09 2448 144 2448L144 2592L0 2592Z" fill="black"/>
<path d="M864 288C882.91 288 901.636 291.725 919.106 298.961C936.577 306.198 952.452 316.805 965.823 330.177C979.195 343.548 989.802 359.423 997.039 376.894C1004.28 394.364 1008 413.09 1008 432L864 432L864 288Z" fill="black"/>
<path d="M144 1872C162.91 1872 181.636 1875.72 199.106 1882.96C216.577 1890.2 232.452 1900.8 245.823 1914.18C259.195 1927.55 269.802 1943.42 277.039 1960.89C284.275 1978.36 288 1997.09 288 2016L144 2016L144 1872Z" fill="black"/>
<path d="M144 2448C162.91 2448 181.636 2451.72 199.106 2458.96C216.577 2466.2 232.452 2476.8 245.823 2490.18C259.195 2503.55 269.802 2519.42 277.039 2536.89C284.275 2554.36 288 2573.09 288 2592L144 2592L144 2448Z" fill="black"/>
<path d="M1296 0C1314.91 -8.26598e-07 1333.64 3.72465 1351.11 10.9613C1368.58 18.198 1384.45 28.805 1397.82 42.1766C1411.2 55.5483 1421.8 71.4227 1429.04 88.8936C1436.28 106.364 1440 125.09 1440 144L1296 144L1296 0Z" fill="black"/>
<path d="M288 432C306.91 432 325.636 435.725 343.106 442.961C360.577 450.198 376.452 460.805 389.823 474.177C403.195 487.548 413.802 503.423 421.039 520.894C428.275 538.364 432 557.09 432 576L288 576L288 432Z" fill="black"/>
<path d="M1008 1728C1026.91 1728 1045.64 1731.72 1063.11 1738.96C1080.58 1746.2 1096.45 1756.8 1109.82 1770.18C1123.2 1783.55 1133.8 1799.42 1141.04 1816.89C1148.28 1834.36 1152 1853.09 1152 1872L1008 1872L1008 1728Z" fill="black"/>
<path d="M1008 2304C1026.91 2304 1045.64 2307.72 1063.11 2314.96C1080.58 2322.2 1096.45 2332.8 1109.82 2346.18C1123.2 2359.55 1133.8 2375.42 1141.04 2392.89C1148.28 2410.36 1152 2429.09 1152 2448L1008 2448L1008 2304Z" fill="black"/>
<path d="M1152 144C1152 125.09 1155.72 106.364 1162.96 88.8936C1170.2 71.4227 1180.8 55.5483 1194.18 42.1766C1207.55 28.805 1223.42 18.198 1240.89 10.9613C1258.36 3.72466 1277.09 1.6532e-06 1296 0L1296 144L1152 144Z" fill="black"/>
<path d="M144 576C144 557.09 147.725 538.364 154.961 520.894C162.198 503.423 172.805 487.548 186.177 474.177C199.548 460.805 215.423 450.198 232.894 442.961C250.364 435.725 269.09 432 288 432L288 576L144 576Z" fill="black"/>
<path d="M864 1872C864 1853.09 867.725 1834.36 874.961 1816.89C882.198 1799.42 892.805 1783.55 906.177 1770.18C919.548 1756.8 935.423 1746.2 952.894 1738.96C970.364 1731.72 989.09 1728 1008 1728L1008 1872L864 1872Z" fill="black"/>
<path d="M1008 2304C1008 2285.09 1011.72 2266.36 1018.96 2248.89C1026.2 2231.42 1036.8 2215.55 1050.18 2202.18C1063.55 2188.8 1079.42 2178.2 1096.89 2170.96C1114.36 2163.72 1133.09 2160 1152 2160L1152 2304L1008 2304Z" fill="black"/>
<path d="M1296 288C1277.09 288 1258.36 284.275 1240.89 277.039C1223.42 269.802 1207.55 259.195 1194.18 245.823C1180.8 232.452 1170.2 216.577 1162.96 199.106C1155.72 181.636 1152 162.91 1152 144L1296 144L1296 288Z" fill="black"/>
<path d="M1440 144C1440 162.91 1436.28 181.636 1429.04 199.106C1421.8 216.577 1411.2 232.452 1397.82 245.823C1384.45 259.195 1368.58 269.802 1351.11 277.039C1333.64 284.275 1314.91 288 1296 288L1296 144L1440 144Z" fill="black"/>
<path d="M576 861C576 842.09 579.725 823.364 586.961 805.894C594.198 788.423 604.805 772.548 618.177 759.177C631.548 745.805 647.423 735.198 664.894 727.961C682.364 720.725 701.09 717 720 717L720 861L576 861Z" fill="black"/>
<path d="M576 1296C576 1277.09 579.725 1258.36 586.961 1240.89C594.198 1223.42 604.805 1207.55 618.177 1194.18C631.548 1180.8 647.423 1170.2 664.894 1162.96C682.364 1155.72 701.09 1152 720 1152L720 1296L576 1296Z" fill="black"/>
<path d="M0 1296C-1.6532e-06 1277.09 3.72465 1258.36 10.9613 1240.89C18.198 1223.42 28.805 1207.55 42.1766 1194.18C55.5482 1180.8 71.4227 1170.2 88.8936 1162.96C106.364 1155.72 125.09 1152 144 1152L144 1296L0 1296Z" fill="black"/>
<path d="M576 1440C576 1421.09 579.725 1402.36 586.961 1384.89C594.198 1367.42 604.805 1351.55 618.177 1338.18C631.548 1324.8 647.423 1314.2 664.894 1306.96C682.364 1299.72 701.09 1296 720 1296L720 1440L576 1440Z" fill="black"/>
<path d="M870.654 854.5C871.403 838.663 874.887 823.059 880.967 808.381C887.877 791.699 898.005 776.541 910.773 763.773C923.541 751.005 938.699 740.877 955.381 733.967C970.059 727.887 985.663 724.403 1001.5 723.654L1001.5 854.5L870.654 854.5Z" fill="black" stroke="black" stroke-width="13"/>
<path d="M870.654 1289.5C871.403 1273.66 874.887 1258.06 880.967 1243.38C887.877 1226.7 898.005 1211.54 910.773 1198.77C923.541 1186 938.699 1175.88 955.381 1168.97C970.059 1162.89 985.663 1159.4 1001.5 1158.65L1001.5 1289.5L870.654 1289.5Z" fill="black" stroke="black" stroke-width="13"/>
<path d="M1289.5 1001.35C1273.66 1000.6 1258.06 997.113 1243.38 991.033C1226.7 984.123 1211.54 973.995 1198.77 961.227C1186 948.459 1175.88 933.301 1168.97 916.619C1162.89 901.941 1159.4 886.337 1158.65 870.5L1289.5 870.5L1289.5 1001.35Z" fill="black" stroke="black" stroke-width="13"/>
<path d="M1302.5 1734.65C1318.34 1735.4 1333.94 1738.89 1348.62 1744.97C1365.3 1751.88 1380.46 1762 1393.23 1774.77C1406 1787.54 1416.12 1802.7 1423.03 1819.38C1429.11 1834.06 1432.6 1849.66 1433.35 1865.5L1302.5 1865.5L1302.5 1734.65Z" fill="black" stroke="black" stroke-width="13"/>
<path d="M1302.5 2310.65C1318.34 2311.4 1333.94 2314.89 1348.62 2320.97C1365.3 2327.88 1380.46 2338 1393.23 2350.77C1406 2363.54 1416.12 2378.7 1423.03 2395.38C1429.11 2410.06 1432.6 2425.66 1433.35 2441.5L1302.5 2441.5L1302.5 2310.65Z" fill="black" stroke="black" stroke-width="13"/>
<path d="M282.351 1012.5C281.61 1028.61 278.12 1044.49 272.021 1059.41C265.104 1076.34 254.968 1091.72 242.196 1104.67C229.423 1117.62 214.265 1127.89 197.59 1134.89C182.919 1141.05 167.325 1144.58 151.5 1145.34L151.5 1012.5L282.351 1012.5Z" fill="black" stroke="black" stroke-width="13"/>
<path d="M150.654 1577.5C151.403 1561.66 154.887 1546.06 160.967 1531.38C167.877 1514.7 178.005 1499.54 190.773 1486.77C203.541 1474 218.699 1463.88 235.381 1456.97C250.059 1450.89 265.663 1447.4 281.5 1446.65L281.5 1577.5L150.654 1577.5Z" fill="black" stroke="black" stroke-width="13"/>
<path d="M150.654 2153.5C151.403 2137.66 154.887 2122.06 160.967 2107.38C167.877 2090.7 178.005 2075.54 190.773 2062.77C203.541 2050 218.699 2039.88 235.381 2032.97C250.059 2026.89 265.663 2023.4 281.5 2022.65L281.5 2153.5L150.654 2153.5Z" fill="black" stroke="black" stroke-width="13"/>
<path d="M870.654 1433.5C871.403 1417.66 874.887 1402.06 880.967 1387.38C887.877 1370.7 898.005 1355.54 910.773 1342.77C923.541 1330 938.699 1319.88 955.381 1312.97C970.059 1306.89 985.663 1303.4 1001.5 1302.65L1001.5 1433.5L870.654 1433.5Z" fill="black" stroke="black" stroke-width="13"/>
<path d="M1433.5 1001.35C1417.66 1000.6 1402.06 997.113 1387.38 991.033C1370.7 984.123 1355.54 973.995 1342.77 961.227C1330 948.459 1319.88 933.301 1312.97 916.619C1306.89 901.941 1303.4 886.337 1302.65 870.5L1433.5 870.5L1433.5 1001.35Z" fill="black" stroke="black" stroke-width="13"/>
<path d="M1158.5 1734.65C1174.34 1735.4 1189.94 1738.89 1204.62 1744.97C1221.3 1751.88 1236.46 1762 1249.23 1774.77C1262 1787.54 1272.12 1802.7 1279.03 1819.38C1285.11 1834.06 1288.6 1849.66 1289.35 1865.5L1158.5 1865.5L1158.5 1734.65Z" fill="black" stroke="black" stroke-width="13"/>
<path d="M1158.65 2153.5C1159.4 2137.66 1162.89 2122.06 1168.97 2107.38C1175.88 2090.7 1186 2075.54 1198.77 2062.77C1211.54 2050 1226.7 2039.88 1243.38 2032.97C1258.06 2026.89 1273.66 2023.4 1289.5 2022.65L1289.5 2153.5L1158.65 2153.5Z" fill="black" stroke="black" stroke-width="13"/>
<path d="M438.5 867.655C454.331 868.409 469.93 871.916 484.604 878.037C501.283 884.993 516.441 895.191 529.211 908.05C541.982 920.909 552.114 936.177 559.027 952.984C565.117 967.786 568.603 983.526 569.348 999.5L438.5 999.5L438.5 867.655Z" fill="black" stroke="black" stroke-width="13"/>
<path d="M294.654 2442.5C295.403 2426.66 298.887 2411.06 304.967 2396.38C311.877 2379.7 322.005 2364.54 334.773 2351.77C347.541 2339 362.699 2328.88 379.381 2321.97C394.059 2315.89 409.663 2312.4 425.5 2311.65L425.5 2442.5L294.654 2442.5Z" fill="black" stroke="black" stroke-width="13"/>
<path d="M1158.5 2310.65C1174.34 2311.4 1189.94 2314.89 1204.62 2320.97C1221.3 2327.88 1236.46 2338 1249.23 2350.77C1262 2363.54 1272.12 2378.7 1279.03 2395.38C1285.11 2410.06 1288.6 2425.66 1289.35 2441.5L1158.5 2441.5L1158.5 2310.65Z" fill="black" stroke="black" stroke-width="13"/>
<path d="M282.348 867.5C281.603 883.474 278.117 899.214 272.027 914.016C265.114 930.823 254.982 946.091 242.211 958.95C229.441 971.809 214.283 982.007 197.604 988.963C182.93 995.084 167.331 998.591 151.5 999.345L151.5 867.5L282.348 867.5Z" fill="black" stroke="black" stroke-width="13"/>
<path d="M870.654 2153.5C871.403 2137.66 874.887 2122.06 880.967 2107.38C887.877 2090.7 898.005 2075.54 910.773 2062.77C923.541 2050 938.699 2039.88 955.381 2032.97C970.059 2026.89 985.663 2023.4 1001.5 2022.65L1001.5 2153.5L870.654 2153.5Z" fill="black" stroke="black" stroke-width="13"/>
<path d="M294.654 2297.5C295.403 2281.66 298.887 2266.06 304.967 2251.38C311.877 2234.7 322.005 2219.54 334.773 2206.77C347.541 2194 362.699 2183.88 379.381 2176.97C394.059 2170.89 409.663 2167.4 425.5 2166.65L425.5 2297.5L294.654 2297.5Z" fill="black" stroke="black" stroke-width="13"/>
<path d="M150.654 1721.5C151.403 1705.66 154.887 1690.06 160.967 1675.38C167.877 1658.7 178.005 1643.54 190.773 1630.77C203.541 1618 218.699 1607.88 235.381 1600.97C250.059 1594.89 265.663 1591.4 281.5 1590.65L281.5 1721.5L150.654 1721.5Z" fill="black" stroke="black" stroke-width="13"/>
<path d="M150.654 2297.5C151.403 2281.66 154.887 2266.06 160.967 2251.38C167.877 2234.7 178.005 2219.54 190.773 2206.77C203.541 2194 218.699 2183.88 235.381 2176.97C250.059 2170.89 265.663 2167.4 281.5 2166.65L281.5 2297.5L150.654 2297.5Z" fill="black" stroke="black" stroke-width="13"/>
<path d="M720 861C720 842.09 723.725 823.364 730.961 805.894C738.198 788.423 748.805 772.548 762.177 759.177C775.548 745.805 791.423 735.198 808.894 727.961C826.364 720.725 845.09 717 864 717L864 861L720 861Z" fill="black"/>
<path d="M720 1296C720 1277.09 723.725 1258.36 730.961 1240.89C738.198 1223.42 748.805 1207.55 762.177 1194.18C775.548 1180.8 791.423 1170.2 808.894 1162.96C826.364 1155.72 845.09 1152 864 1152L864 1296L720 1296Z" fill="black"/>
<path d="M1296 1152C1277.09 1152 1258.36 1148.28 1240.89 1141.04C1223.42 1133.8 1207.55 1123.2 1194.18 1109.82C1180.8 1096.45 1170.2 1080.58 1162.96 1063.11C1155.72 1045.64 1152 1026.91 1152 1008L1296 1008L1296 1152Z" fill="black"/>
<path d="M144 1296C144 1277.09 147.725 1258.36 154.961 1240.89C162.198 1223.42 172.805 1207.55 186.177 1194.18C199.548 1180.8 215.423 1170.2 232.894 1162.96C250.364 1155.72 269.09 1152 288 1152L288 1296L144 1296Z" fill="black"/>
<path d="M0 1584C-1.6532e-06 1565.09 3.72465 1546.36 10.9613 1528.89C18.198 1511.42 28.805 1495.55 42.1766 1482.18C55.5482 1468.8 71.4227 1458.2 88.8936 1450.96C106.364 1443.72 125.09 1440 144 1440L144 1584L0 1584Z" fill="black"/>
<path d="M0 2160C-1.6532e-06 2141.09 3.72465 2122.36 10.9613 2104.89C18.198 2087.42 28.805 2071.55 42.1766 2058.18C55.5482 2044.8 71.4227 2034.2 88.8936 2026.96C106.364 2019.72 125.09 2016 144 2016L144 2160L0 2160Z" fill="black"/>
<path d="M720 1440C720 1421.09 723.725 1402.36 730.961 1384.89C738.198 1367.42 748.805 1351.55 762.177 1338.18C775.548 1324.8 791.423 1314.2 808.894 1306.96C826.364 1299.72 845.09 1296 864 1296L864 1440L720 1440Z" fill="black"/>
<path d="M1440 1152C1421.09 1152 1402.36 1148.28 1384.89 1141.04C1367.42 1133.8 1351.55 1123.2 1338.18 1109.82C1324.8 1096.45 1314.2 1080.58 1306.96 1063.11C1299.72 1045.64 1296 1026.91 1296 1008L1440 1008L1440 1152Z" fill="black"/>
<path d="M720 1440C738.91 1440 757.636 1443.72 775.106 1450.96C792.577 1458.2 808.452 1468.8 821.823 1482.18C835.195 1495.55 845.802 1511.42 853.039 1528.89C860.275 1546.36 864 1565.09 864 1584L720 1584L720 1440Z" fill="black"/>
<path d="M720 2016C738.91 2016 757.636 2019.72 775.106 2026.96C792.577 2034.2 808.452 2044.8 821.823 2058.18C835.195 2071.55 845.802 2087.42 853.039 2104.89C860.275 2122.36 864 2141.09 864 2160L720 2160L720 2016Z" fill="black"/>
<path d="M0 1728C-1.6532e-06 1709.09 3.72465 1690.36 10.9613 1672.89C18.198 1655.42 28.805 1639.55 42.1766 1626.18C55.5482 1612.8 71.4227 1602.2 88.8936 1594.96C106.364 1587.72 125.09 1584 144 1584L144 1728L0 1728Z" fill="black"/>
<path d="M0 2304C-1.6532e-06 2285.09 3.72465 2266.36 10.9613 2248.89C18.198 2231.42 28.805 2215.55 42.1766 2202.18C55.5482 2188.8 71.4227 2178.2 88.8936 2170.96C106.364 2163.72 125.09 2160 144 2160L144 2304L0 2304Z" fill="black"/>
<path d="M1014.65 854.5C1015.4 838.663 1018.89 823.059 1024.97 808.381C1031.88 791.699 1042 776.541 1054.77 763.773C1067.54 751.005 1082.7 740.877 1099.38 733.967C1114.06 727.887 1129.66 724.403 1145.5 723.654L1145.5 854.5L1014.65 854.5Z" fill="black" stroke="black" stroke-width="13"/>
<path d="M1014.65 1289.5C1015.4 1273.66 1018.89 1258.06 1024.97 1243.38C1031.88 1226.7 1042 1211.54 1054.77 1198.77C1067.54 1186 1082.7 1175.88 1099.38 1168.97C1114.06 1162.89 1129.66 1159.4 1145.5 1158.65L1145.5 1289.5L1014.65 1289.5Z" fill="black" stroke="black" stroke-width="13"/>
<path d="M1289.5 857.346C1273.66 856.597 1258.06 853.113 1243.38 847.033C1226.7 840.123 1211.54 829.995 1198.77 817.227C1186 804.459 1175.88 789.301 1168.97 772.619C1162.89 757.941 1159.4 742.337 1158.65 726.5L1289.5 726.5L1289.5 857.346Z" fill="black" stroke="black" stroke-width="13"/>
<path d="M1158.65 1289.5C1159.4 1273.66 1162.89 1258.06 1168.97 1243.38C1175.88 1226.7 1186 1211.54 1198.77 1198.77C1211.54 1186 1226.7 1175.88 1243.38 1168.97C1258.06 1162.89 1273.66 1159.4 1289.5 1158.65L1289.5 1289.5L1158.65 1289.5Z" fill="black" stroke="black" stroke-width="13"/>
<path d="M1289.5 713.346C1273.66 712.597 1258.06 709.113 1243.38 703.033C1226.7 696.123 1211.54 685.995 1198.77 673.227C1186 660.459 1175.88 645.301 1168.97 628.619C1162.89 613.941 1159.4 598.337 1158.65 582.5L1289.5 582.5L1289.5 713.346Z" fill="black" stroke="black" stroke-width="13"/>
<path d="M1302.5 1878.65C1318.34 1879.4 1333.94 1882.89 1348.62 1888.97C1365.3 1895.88 1380.46 1906 1393.23 1918.77C1406 1931.54 1416.12 1946.7 1423.03 1963.38C1429.11 1978.06 1432.6 1993.66 1433.35 2009.5L1302.5 2009.5L1302.5 1878.65Z" fill="black" stroke="black" stroke-width="13"/>
<path d="M713.351 1012.5C712.61 1028.61 709.12 1044.49 703.021 1059.41C696.104 1076.34 685.968 1091.72 673.196 1104.67C660.423 1117.62 645.265 1127.89 628.59 1134.89C613.919 1141.05 598.325 1144.58 582.5 1145.34L582.5 1012.5L713.351 1012.5Z" fill="black" stroke="black" stroke-width="13"/>
<path d="M1302.5 2454.65C1318.34 2455.4 1333.94 2458.89 1348.62 2464.97C1365.3 2471.88 1380.46 2482 1393.23 2494.77C1406 2507.54 1416.12 2522.7 1423.03 2539.38C1429.11 2554.06 1432.6 2569.66 1433.35 2585.5L1302.5 2585.5L1302.5 2454.65Z" fill="black" stroke="black" stroke-width="13"/>
<path d="M138.351 1012.5C137.61 1028.61 134.12 1044.49 128.021 1059.41C121.104 1076.34 110.968 1091.72 98.1956 1104.67C85.4234 1117.62 70.2654 1127.89 53.5896 1134.89C38.9191 1141.05 23.3245 1144.58 7.5 1145.34L7.5 1012.5L138.351 1012.5Z" fill="black" stroke="black" stroke-width="13"/>
<path d="M1145.35 1302.5C1144.6 1318.34 1141.11 1333.94 1135.03 1348.62C1128.12 1365.3 1118 1380.46 1105.23 1393.23C1092.46 1406 1077.3 1416.12 1060.62 1423.03C1045.94 1429.11 1030.34 1432.6 1014.5 1433.35L1014.5 1302.5L1145.35 1302.5Z" fill="black" stroke="black" stroke-width="13"/>
<path d="M1302.5 726.654C1318.34 727.403 1333.94 730.887 1348.62 736.967C1365.3 743.877 1380.46 754.005 1393.23 766.773C1406 779.541 1416.12 794.699 1423.03 811.381C1429.11 826.059 1432.6 841.663 1433.35 857.5L1302.5 857.5L1302.5 726.654Z" fill="black" stroke="black" stroke-width="13"/>
<path d="M1158.5 1878.65C1174.34 1879.4 1189.94 1882.89 1204.62 1888.97C1221.3 1895.88 1236.46 1906 1249.23 1918.77C1262 1931.54 1272.12 1946.7 1279.03 1963.38C1285.11 1978.06 1288.6 1993.66 1289.35 2009.5L1158.5 2009.5L1158.5 1878.65Z" fill="black" stroke="black" stroke-width="13"/>
<path d="M713.348 867.5C712.603 883.474 709.117 899.214 703.027 914.016C696.114 930.823 685.982 946.091 673.211 958.95C660.441 971.809 645.283 982.007 628.604 988.963C613.93 995.084 598.331 998.591 582.5 999.345L582.5 867.5L713.348 867.5Z" fill="black" stroke="black" stroke-width="13"/>
<path d="M1158.5 2166.65C1174.34 2167.4 1189.94 2170.89 1204.62 2176.97C1221.3 2183.88 1236.46 2194 1249.23 2206.77C1262 2219.54 1272.12 2234.7 1279.03 2251.38C1285.11 2266.06 1288.6 2281.66 1289.35 2297.5L1158.5 2297.5L1158.5 2166.65Z" fill="black" stroke="black" stroke-width="13"/>
<path d="M425.35 867.5C424.61 883.48 421.146 899.225 415.097 914.031C408.231 930.841 398.168 946.109 385.488 958.966C372.809 971.823 357.761 982.017 341.207 988.97C326.658 995.08 311.193 998.584 295.5 999.343L295.5 867.5L425.35 867.5Z" fill="black" stroke="black" stroke-width="13"/>
<path d="M1158.5 2454.65C1174.34 2455.4 1189.94 2458.89 1204.62 2464.97C1221.3 2471.88 1236.46 2482 1249.23 2494.77C1262 2507.54 1272.12 2522.7 1279.03 2539.38C1285.11 2554.06 1288.6 2569.66 1289.35 2585.5L1158.5 2585.5L1158.5 2454.65Z" fill="black" stroke="black" stroke-width="13"/>
<path d="M138.348 867.5C137.603 883.474 134.117 899.214 128.027 914.016C121.114 930.823 110.982 946.091 98.2113 958.95C85.4412 971.809 70.2833 982.007 53.6043 988.963C38.9302 995.084 23.3306 998.591 7.5 999.345L7.5 867.5L138.348 867.5Z" fill="black" stroke="black" stroke-width="13"/>
<path d="M288 432C288 413.09 291.725 394.364 298.961 376.894C306.198 359.423 316.805 343.548 330.177 330.177C343.548 316.805 359.423 306.198 376.894 298.961C394.364 291.725 413.09 288 432 288L432 432L288 432Z" fill="black"/>
<path d="M432 144C432 125.09 435.725 106.364 442.961 88.8936C450.198 71.4227 460.805 55.5483 474.177 42.1766C487.548 28.805 503.423 18.198 520.894 10.9613C538.364 3.72466 557.09 1.6532e-06 576 0L576 144L432 144Z" fill="black"/>
<path d="M288 144C288 162.91 284.275 181.636 277.039 199.106C269.802 216.577 259.195 232.452 245.823 245.823C232.452 259.195 216.577 269.802 199.106 277.039C181.636 284.275 162.91 288 144 288V144H288Z" fill="black"/>
<path d="M432 576C432 594.91 428.275 613.636 421.039 631.106C413.802 648.577 403.195 664.452 389.823 677.823C376.452 691.195 360.577 701.802 343.106 709.039C325.636 716.275 306.91 720 288 720V576H432Z" fill="black"/>
<path d="M1152 1872C1152 1890.91 1148.28 1909.64 1141.04 1927.11C1133.8 1944.58 1123.2 1960.45 1109.82 1973.82C1096.45 1987.2 1080.58 1997.8 1063.11 2005.04C1045.64 2012.28 1026.91 2016 1008 2016V1872H1152Z" fill="black"/>
<path d="M1152 2448C1152 2466.91 1148.28 2485.64 1141.04 2503.11C1133.8 2520.58 1123.2 2536.45 1109.82 2549.82C1096.45 2563.2 1080.58 2573.8 1063.11 2581.04C1045.64 2588.28 1026.91 2592 1008 2592V2448H1152Z" fill="black"/>
<path d="M288 720C288 738.91 284.275 757.636 277.039 775.106C269.802 792.577 259.195 808.452 245.823 821.823C232.452 835.195 216.577 845.802 199.106 853.039C181.636 860.275 162.91 864 144 864V720H288Z" fill="black"/>
<path d="M288 1728C288 1746.91 284.275 1765.64 277.039 1783.11C269.802 1800.58 259.195 1816.45 245.823 1829.82C232.452 1843.2 216.577 1853.8 199.106 1861.04C181.636 1868.28 162.91 1872 144 1872V1728H288Z" fill="black"/>
<path d="M288 2304C288 2322.91 284.275 2341.64 277.039 2359.11C269.802 2376.58 259.195 2392.45 245.823 2405.82C232.452 2419.2 216.577 2429.8 199.106 2437.04C181.636 2444.28 162.91 2448 144 2448V2304H288Z" fill="black"/>
<path d="M288 1296C288 1314.91 284.275 1333.64 277.039 1351.11C269.802 1368.58 259.195 1384.45 245.823 1397.82C232.452 1411.2 216.577 1421.8 199.106 1429.04C181.636 1436.28 162.91 1440 144 1440V1296H288Z" fill="black"/>
<path d="M864 1728C864 1746.91 860.275 1765.64 853.039 1783.11C845.802 1800.58 835.195 1816.45 821.823 1829.82C808.452 1843.2 792.577 1853.8 775.106 1861.04C757.636 1868.28 738.91 1872 720 1872V1728H864Z" fill="black"/>
<path d="M720 1728C720 1746.91 716.275 1765.64 709.039 1783.11C701.802 1800.58 691.195 1816.45 677.823 1829.82C664.452 1843.2 648.577 1853.8 631.106 1861.04C613.636 1868.28 594.91 1872 576 1872V1728H720Z" fill="black"/>
<path d="M576 2160C576 2178.91 572.275 2197.64 565.039 2215.11C557.802 2232.58 547.195 2248.45 533.823 2261.82C520.452 2275.2 504.577 2285.8 487.106 2293.04C469.636 2300.28 450.91 2304 432 2304V2160H576Z" fill="black"/>
<path d="M864 1872C864 1890.91 860.275 1909.64 853.039 1927.11C845.802 1944.58 835.195 1960.45 821.823 1973.82C808.452 1987.2 792.577 1997.8 775.106 2005.04C757.636 2012.28 738.91 2016 720 2016V1872H864Z" fill="black"/>
<path d="M864 2448C864 2466.91 860.275 2485.64 853.039 2503.11C845.802 2520.58 835.195 2536.45 821.823 2549.82C808.452 2563.2 792.577 2573.8 775.106 2581.04C757.636 2588.28 738.91 2592 720 2592V2448H864Z" fill="black"/>
<path d="M1296 288C1296 306.91 1292.28 325.636 1285.04 343.106C1277.8 360.577 1267.2 376.452 1253.82 389.823C1240.45 403.195 1224.58 413.802 1207.11 421.039C1189.64 428.275 1170.91 432 1152 432V288H1296Z" fill="black"/>
<path d="M576 1872C576 1890.91 572.275 1909.64 565.039 1927.11C557.802 1944.58 547.195 1960.45 533.823 1973.82C520.452 1987.2 504.577 1997.8 487.106 2005.04C469.636 2012.28 450.91 2016 432 2016V1872H576Z" fill="black"/>
<path d="M576 2448C576 2466.91 572.275 2485.64 565.039 2503.11C557.802 2520.58 547.195 2536.45 533.823 2549.82C520.452 2563.2 504.577 2573.8 487.106 2581.04C469.636 2588.28 450.91 2592 432 2592V2448H576Z" fill="black"/>
<path d="M1008 432C1008 413.09 1011.72 394.364 1018.96 376.894C1026.2 359.423 1036.8 343.548 1050.18 330.177C1063.55 316.805 1079.42 306.198 1096.89 298.961C1114.36 291.725 1133.09 288 1152 288L1152 432L1008 432Z" fill="black"/>
<path d="M288 2016C288 1997.09 291.725 1978.36 298.961 1960.89C306.198 1943.42 316.805 1927.55 330.177 1914.18C343.548 1900.8 359.423 1890.2 376.894 1882.96C394.364 1875.72 413.09 1872 432 1872L432 2016L288 2016Z" fill="black"/>
<path d="M288 2592C288 2573.09 291.725 2554.36 298.961 2536.89C306.198 2519.42 316.805 2503.55 330.177 2490.18C343.548 2476.8 359.423 2466.2 376.894 2458.96C394.364 2451.72 413.09 2448 432 2448L432 2592L288 2592Z" fill="black"/>
<path d="M288 0C306.91 -8.26598e-07 325.636 3.72465 343.106 10.9613C360.577 18.198 376.452 28.805 389.823 42.1766C403.195 55.5483 413.802 71.4227 421.039 88.8936C428.275 106.364 432 125.09 432 144L288 144L288 0Z" fill="black"/>
<path d="M1152 288C1133.09 288 1114.36 284.275 1096.89 277.039C1079.42 269.802 1063.55 259.195 1050.18 245.823C1036.8 232.452 1026.2 216.577 1018.96 199.106C1011.72 181.636 1008 162.91 1008 144L1152 144L1152 288Z" fill="black"/>
<path d="M144 0C162.91 -8.26598e-07 181.636 3.72465 199.106 10.9613C216.577 18.198 232.452 28.805 245.823 42.1766C259.195 55.5483 269.802 71.4227 277.039 88.8936C284.275 106.364 288 125.09 288 144L144 144L144 0Z" fill="black"/>
<path d="M432 288C413.09 288 394.364 284.275 376.894 277.039C359.423 269.802 343.548 259.195 330.177 245.823C316.805 232.452 306.198 216.577 298.961 199.106C291.725 181.636 288 162.91 288 144L432 144L432 288Z" fill="black"/>
<path d="M288 720C269.09 720 250.364 716.275 232.894 709.039C215.423 701.802 199.548 691.195 186.177 677.823C172.805 664.452 162.198 648.577 154.961 631.106C147.725 613.636 144 594.91 144 576L288 576L288 720Z" fill="black"/>
<path d="M1008 2016C989.09 2016 970.364 2012.28 952.894 2005.04C935.423 1997.8 919.548 1987.2 906.177 1973.82C892.805 1960.45 882.198 1944.58 874.961 1927.11C867.725 1909.64 864 1890.91 864 1872L1008 1872L1008 2016Z" fill="black"/>
<path d="M1008 2592C989.09 2592 970.364 2588.28 952.894 2581.04C935.423 2573.8 919.548 2563.2 906.177 2549.82C892.805 2536.45 882.198 2520.58 874.961 2503.11C867.725 2485.64 864 2466.91 864 2448L1008 2448L1008 2592Z" fill="black"/>
<path d="M569.346 726.5C568.597 742.337 565.113 757.941 559.033 772.619C552.123 789.301 541.995 804.459 529.227 817.227C516.459 829.995 501.301 840.123 484.619 847.033C467.937 853.943 450.057 857.5 432 857.5C413.943 857.5 396.063 853.943 379.381 847.033C362.699 840.123 347.541 829.995 334.773 817.227C322.005 804.459 311.877 789.301 304.967 772.619C298.887 757.941 295.403 742.337 294.654 726.5L432 726.5H569.346Z" fill="black" stroke="black" stroke-width="13"/>
<path d="M569.346 1158.5C568.597 1174.34 565.113 1189.94 559.033 1204.62C552.123 1221.3 541.995 1236.46 529.227 1249.23C516.459 1262 501.301 1272.12 484.619 1279.03C467.937 1285.94 450.057 1289.5 432 1289.5C413.943 1289.5 396.063 1285.94 379.381 1279.03C362.699 1272.12 347.541 1262 334.773 1249.23C322.005 1236.46 311.877 1221.3 304.967 1204.62C298.887 1189.94 295.403 1174.34 294.654 1158.5L432 1158.5H569.346Z" fill="black" stroke="black" stroke-width="13"/>
<path d="M569.346 1302.5C568.597 1318.34 565.113 1333.94 559.033 1348.62C552.123 1365.3 541.995 1380.46 529.227 1393.23C516.459 1406 501.301 1416.12 484.619 1423.03C467.937 1429.94 450.057 1433.5 432 1433.5C413.943 1433.5 396.063 1429.94 379.381 1423.03C362.699 1416.12 347.541 1406 334.773 1393.23C322.005 1380.46 311.877 1365.3 304.967 1348.62C298.887 1333.94 295.403 1318.34 294.654 1302.5L432 1302.5H569.346Z" fill="black" stroke="black" stroke-width="13"/>
<path d="M144 864C125.09 864 106.364 860.275 88.8936 853.039C71.4227 845.802 55.5483 835.195 42.1766 821.823C28.805 808.452 18.198 792.577 10.9613 775.106C3.72465 757.636 -8.26598e-07 738.91 0 720L144 720L144 864Z" fill="black"/>
<path d="M720 2016C701.09 2016 682.364 2012.28 664.894 2005.04C647.423 1997.8 631.548 1987.2 618.177 1973.82C604.805 1960.45 594.198 1944.58 586.961 1927.11C579.725 1909.64 576 1890.91 576 1872L720 1872L720 2016Z" fill="black"/>
<path d="M720 2592C701.09 2592 682.364 2588.28 664.894 2581.04C647.423 2573.8 631.548 2563.2 618.177 2549.82C604.805 2536.45 594.198 2520.58 586.961 2503.11C579.725 2485.64 576 2466.91 576 2448L720 2448L720 2592Z" fill="black"/>
<path d="M144 1872C125.09 1872 106.364 1868.28 88.8936 1861.04C71.4227 1853.8 55.5483 1843.2 42.1766 1829.82C28.805 1816.45 18.198 1800.58 10.9613 1783.11C3.72465 1765.64 -8.26598e-07 1746.91 0 1728L144 1728L144 1872Z" fill="black"/>
<path d="M144 2448C125.09 2448 106.364 2444.28 88.8936 2437.04C71.4227 2429.8 55.5483 2419.2 42.1766 2405.82C28.805 2392.45 18.198 2376.58 10.9613 2359.11C3.72465 2341.64 -8.26598e-07 2322.91 0 2304L144 2304L144 2448Z" fill="black"/>
<path d="M144 1440C125.09 1440 106.364 1436.28 88.8936 1429.04C71.4227 1421.8 55.5483 1411.2 42.1766 1397.82C28.805 1384.45 18.198 1368.58 10.9613 1351.11C3.72465 1333.64 -8.26598e-07 1314.91 0 1296L144 1296L144 1440Z" fill="black"/>
<path d="M1008 0C1026.91 2.47979e-06 1045.64 3.72466 1063.11 10.9613C1080.58 18.198 1096.45 28.805 1109.82 42.1766C1123.2 55.5483 1133.8 71.4227 1141.04 88.8936C1148.28 106.364 1152 125.09 1152 144L1008 144L1008 0Z" fill="black"/>
<path d="M144 144C125.09 144 106.364 140.275 88.8936 133.039C71.4227 125.802 55.5483 115.195 42.1766 101.823C28.805 88.4517 18.198 72.5773 10.9613 55.1064C3.72465 37.6355 -8.26598e-07 18.9103 0 -6.29444e-06L144 0L144 144Z" fill="black"/>
<path d="M432 144C450.91 144 469.636 147.725 487.106 154.961C504.577 162.198 520.452 172.805 533.823 186.177C547.195 199.548 557.802 215.423 565.039 232.894C572.275 250.364 576 269.09 576 288L432 288L432 144Z" fill="black"/>
<path d="M1008 144C989.09 144 970.364 140.275 952.894 133.039C935.423 125.802 919.548 115.195 906.177 101.823C892.805 88.4517 882.198 72.5773 874.961 55.1064C867.725 37.6355 864 18.9103 864 -3.14722e-05L1008 0L1008 144Z" fill="black"/>
<path d="M288 144H1008L1107.5 178L1152 288H433.5L357 216L288 144Z" fill="black"/>
<path d="M898.639 868.068C898.598 868.068 898.556 868.068 898.507 868.068C898.556 868.068 898.598 868.078 898.639 868.068Z" fill="#1D1D1B"/>
<path d="M898.771 868.068C898.73 868.068 898.688 868.068 898.647 868.068C898.688 868.078 898.73 868.068 898.771 868.068Z" fill="#1D1D1B"/>
<path d="M576 1440C594.91 1440 613.636 1443.72 631.106 1450.96C648.577 1458.2 664.452 1468.8 677.823 1482.18C691.195 1495.55 701.802 1511.42 709.039 1528.89C716.275 1546.36 720 1565.09 720 1584L576 1584L576 1440Z" fill="black"/>
<path d="M576 2016C594.91 2016 613.636 2019.72 631.106 2026.96C648.577 2034.2 664.452 2044.8 677.823 2058.18C691.195 2071.55 701.802 2087.42 709.039 2104.89C716.275 2122.36 720 2141.09 720 2160L576 2160L576 2016Z" fill="black"/>
<path d="M1440 1728C1421.09 1728 1402.36 1724.28 1384.89 1717.04C1367.42 1709.8 1351.55 1699.2 1338.18 1685.82C1324.8 1672.45 1314.2 1656.58 1306.96 1639.11C1299.72 1621.64 1296 1602.91 1296 1584L1440 1584L1440 1728Z" fill="black"/>
<path d="M1440 2304C1421.09 2304 1402.36 2300.28 1384.89 2293.04C1367.42 2285.8 1351.55 2275.2 1338.18 2261.82C1324.8 2248.45 1314.2 2232.58 1306.96 2215.11C1299.72 2197.64 1296 2178.91 1296 2160L1440 2160L1440 2304Z" fill="black"/>
<path d="M289 1152C289 1132.83 292.699 1113.84 299.885 1096.13C307.072 1078.41 317.605 1062.32 330.884 1048.76C344.163 1035.21 359.927 1024.45 377.276 1017.11C394.626 1009.78 413.221 1006 432 1006L432 1152L289 1152Z" fill="black"/>
<path d="M1440 1440C1421.09 1440 1402.36 1436.28 1384.89 1429.04C1367.42 1421.8 1351.55 1411.2 1338.18 1397.82C1324.8 1384.45 1314.2 1368.58 1306.96 1351.11C1299.72 1333.64 1296 1314.91 1296 1296L1440 1296L1440 1440Z" fill="black"/>
<path d="M1440 432C1440 450.91 1436.28 469.636 1429.04 487.106C1421.8 504.577 1411.2 520.452 1397.82 533.823C1384.45 547.195 1368.58 557.802 1351.11 565.039C1333.64 572.275 1314.91 576 1296 576L1296 432L1440 432Z" fill="black"/>
<path d="M1008 2160C1008 2141.09 1011.72 2122.36 1018.96 2104.89C1026.2 2087.42 1036.8 2071.55 1050.18 2058.18C1063.55 2044.8 1079.42 2034.2 1096.89 2026.96C1114.36 2019.72 1133.09 2016 1152 2016L1152 2160L1008 2160Z" fill="black"/>
<path d="M432 2160C413.09 2160 394.364 2156.28 376.894 2149.04C359.423 2141.8 343.548 2131.2 330.177 2117.82C316.805 2104.45 306.198 2088.58 298.961 2071.11C291.725 2053.64 288 2034.91 288 2016L432 2016L432 2160Z" fill="black"/>
<path d="M1296 1440C1314.91 1440 1333.64 1443.72 1351.11 1450.96C1368.58 1458.2 1384.45 1468.8 1397.82 1482.18C1411.2 1495.55 1421.8 1511.42 1429.04 1528.89C1436.28 1546.36 1440 1565.09 1440 1584L1296 1584L1296 1440Z" fill="black"/>
<path d="M1296 2016C1314.91 2016 1333.64 2019.72 1351.11 2026.96C1368.58 2034.2 1384.45 2044.8 1397.82 2058.18C1411.2 2071.55 1421.8 2087.42 1429.04 2104.89C1436.28 2122.36 1440 2141.09 1440 2160L1296 2160L1296 2016Z" fill="black"/>
<path d="M576 1006C576 1025.17 572.275 1044.16 565.039 1061.87C557.802 1079.59 547.195 1095.68 533.823 1109.24C520.452 1122.79 504.577 1133.55 487.106 1140.89C469.636 1148.22 450.91 1152 432 1152L432 1006L576 1006Z" fill="black"/>
<path d="M432 2305C450.91 2305 469.636 2308.72 487.106 2315.96C504.577 2323.2 520.452 2333.8 533.823 2347.18C547.195 2360.55 557.802 2376.42 565.039 2393.89C572.275 2411.36 576 2430.09 576 2449L432 2449L432 2305Z" fill="black"/>
<path d="M1296 1152C1314.91 1152 1333.64 1155.72 1351.11 1162.96C1368.58 1170.2 1384.45 1180.8 1397.82 1194.18C1411.2 1207.55 1421.8 1223.42 1429.04 1240.89C1436.28 1258.36 1440 1277.09 1440 1296L1296 1296L1296 1152Z" fill="black"/>
<path d="M1152 576C1152 557.09 1155.72 538.364 1162.96 520.894C1170.2 503.423 1180.8 487.548 1194.18 474.177C1207.55 460.805 1223.42 450.198 1240.89 442.961C1258.36 435.725 1277.09 432 1296 432L1296 576L1152 576Z" fill="black"/>
<path d="M720 1584C738.91 1584 757.636 1587.72 775.106 1594.96C792.577 1602.2 808.452 1612.8 821.823 1626.18C835.195 1639.55 845.802 1655.42 853.039 1672.89C860.275 1690.36 864 1709.09 864 1728L720 1728L720 1584Z" fill="black"/>
<path d="M576 1584C594.91 1584 613.636 1587.72 631.106 1594.96C648.577 1602.2 664.452 1612.8 677.823 1626.18C691.195 1639.55 701.802 1655.42 709.039 1672.89C716.275 1690.36 720 1709.09 720 1728L576 1728L576 1584Z" fill="black"/>
<path d="M432 2016C450.91 2016 469.636 2019.72 487.106 2026.96C504.577 2034.2 520.452 2044.8 533.823 2058.18C547.195 2071.55 557.802 2087.42 565.039 2104.89C572.275 2122.36 576 2141.09 576 2160L432 2160L432 2016Z" fill="black"/>
<path d="M1296 1440C1277.09 1440 1258.36 1436.28 1240.89 1429.04C1223.42 1421.8 1207.55 1411.19 1194.18 1397.82C1180.8 1384.45 1170.2 1368.58 1162.96 1351.11C1155.72 1333.64 1152 1314.91 1152 1296L1296 1296L1296 1440Z" fill="black"/>
<path d="M1440 576C1440 594.91 1436.28 613.636 1429.04 631.106C1421.8 648.577 1411.19 664.452 1397.82 677.823C1384.45 691.195 1368.58 701.802 1351.11 709.039C1333.64 716.275 1314.91 720 1296 720L1296 576L1440 576Z" fill="black"/>
<path d="M570.346 2742.5C569.597 2758.34 566.113 2773.94 560.033 2788.62C553.123 2805.3 542.995 2820.46 530.227 2833.23C517.459 2846 502.301 2856.12 485.619 2863.03C470.941 2869.11 455.337 2872.6 439.5 2873.35L439.5 2742.5L570.346 2742.5Z" fill="black" stroke="black" stroke-width="13"/>
<path d="M857.346 2742.5C856.597 2758.34 853.113 2773.94 847.033 2788.62C840.123 2805.3 829.995 2820.46 817.227 2833.23C804.459 2846 789.301 2856.12 772.619 2863.03C757.941 2869.11 742.337 2872.6 726.5 2873.35L726.5 2742.5L857.346 2742.5Z" fill="black" stroke="black" stroke-width="13"/>
<path d="M1145.35 2742.5C1144.6 2758.34 1141.11 2773.94 1135.03 2788.62C1128.12 2805.3 1118 2820.46 1105.23 2833.23C1092.46 2846 1077.3 2856.12 1060.62 2863.03C1045.94 2869.11 1030.34 2872.6 1014.5 2873.35L1014.5 2742.5L1145.35 2742.5Z" fill="black" stroke="black" stroke-width="13"/>
<path d="M1433.35 2742.5C1432.6 2758.34 1429.11 2773.94 1423.03 2788.62C1416.12 2805.3 1406 2820.46 1393.23 2833.23C1380.46 2846 1365.3 2856.12 1348.62 2863.03C1333.94 2869.11 1318.34 2872.6 1302.5 2873.35L1302.5 2742.5L1433.35 2742.5Z" fill="black" stroke="black" stroke-width="13"/>
<path d="M426.5 2873.35C410.663 2872.6 395.059 2869.11 380.381 2863.03C363.699 2856.12 348.541 2846 335.773 2833.23C323.005 2820.46 312.877 2805.3 305.967 2788.62C299.887 2773.94 296.403 2758.34 295.654 2742.5L426.5 2742.5L426.5 2873.35Z" fill="black" stroke="black" stroke-width="13"/>
<path d="M289 2592C307.91 2592 326.636 2595.72 344.106 2602.96C361.577 2610.2 377.452 2620.8 390.823 2634.18C404.195 2647.55 414.802 2663.42 422.039 2680.89C429.275 2698.36 433 2717.09 433 2736L289 2736L289 2592Z" fill="black"/>
<path d="M0.999994 2592C19.9103 2592 38.6355 2595.72 56.1064 2602.96C73.5773 2610.2 89.4517 2620.8 102.823 2634.18C116.195 2647.55 126.802 2663.42 134.039 2680.89C141.275 2698.36 145 2717.09 145 2736L1 2736L0.999994 2592Z" fill="black"/>
<path d="M576 2592C594.91 2592 613.636 2595.72 631.106 2602.96C648.577 2610.2 664.452 2620.8 677.823 2634.18C691.195 2647.55 701.802 2663.42 709.039 2680.89C716.275 2698.36 720 2717.09 720 2736L576 2736L576 2592Z" fill="black"/>
<path d="M864 2592C882.91 2592 901.636 2595.72 919.106 2602.96C936.577 2610.2 952.452 2620.8 965.823 2634.18C979.195 2647.55 989.802 2663.42 997.039 2680.89C1004.28 2698.36 1008 2717.09 1008 2736L864 2736L864 2592Z" fill="black"/>
<path d="M1152 2592C1170.91 2592 1189.64 2595.72 1207.11 2602.96C1224.58 2610.2 1240.45 2620.8 1253.82 2634.18C1267.2 2647.55 1277.8 2663.42 1285.04 2680.89C1292.28 2698.36 1296 2717.09 1296 2736L1152 2736L1152 2592Z" fill="black"/>
<path d="M145 2880C126.09 2880 107.364 2876.28 89.8936 2869.04C72.4227 2861.8 56.5483 2851.2 43.1766 2837.82C29.805 2824.45 19.198 2808.58 11.9613 2791.11C4.72465 2773.64 0.999999 2754.91 1 2736L145 2736L145 2880Z" fill="black"/>
<path d="M720 2880C701.09 2880 682.364 2876.28 664.894 2869.04C647.423 2861.8 631.548 2851.2 618.177 2837.82C604.805 2824.45 594.198 2808.58 586.961 2791.11C579.725 2773.64 576 2754.91 576 2736L720 2736L720 2880Z" fill="black"/>
<path d="M1008 2880C989.09 2880 970.364 2876.28 952.894 2869.04C935.423 2861.8 919.548 2851.2 906.177 2837.82C892.805 2824.45 882.198 2808.58 874.961 2791.11C867.725 2773.64 864 2754.91 864 2736L1008 2736L1008 2880Z" fill="black"/>
<path d="M1296 2880C1277.09 2880 1258.36 2876.28 1240.89 2869.04C1223.42 2861.8 1207.55 2851.2 1194.18 2837.82C1180.8 2824.45 1170.2 2808.58 1162.96 2791.11C1155.72 2773.64 1152 2754.91 1152 2736L1296 2736L1296 2880Z" fill="black"/>
<path d="M289 2736C289 2754.91 285.275 2773.64 278.039 2791.11C270.802 2808.58 260.195 2824.45 246.823 2837.82C233.452 2851.2 217.577 2861.8 200.106 2869.04C182.636 2876.28 163.91 2880 145 2880L145 2736L289 2736Z" fill="black"/>
<path d="M433 2736C433 2717.09 436.725 2698.36 443.961 2680.89C451.198 2663.42 461.805 2647.55 475.177 2634.18C488.548 2620.8 504.423 2610.2 521.894 2602.96C539.364 2595.72 558.09 2592 577 2592L577 2736L433 2736Z" fill="black"/>
<path d="M720 2736C720 2717.09 723.725 2698.36 730.961 2680.89C738.198 2663.42 748.805 2647.55 762.177 2634.18C775.548 2620.8 791.423 2610.2 808.894 2602.96C826.364 2595.72 845.09 2592 864 2592L864 2736L720 2736Z" fill="black"/>
<path d="M1008 2736C1008 2717.09 1011.72 2698.36 1018.96 2680.89C1026.2 2663.42 1036.8 2647.55 1050.18 2634.18C1063.55 2620.8 1079.42 2610.2 1096.89 2602.96C1114.36 2595.72 1133.09 2592 1152 2592L1152 2736L1008 2736Z" fill="black"/>
<path d="M1296 2736C1296 2717.09 1299.72 2698.36 1306.96 2680.89C1314.2 2663.42 1324.8 2647.55 1338.18 2634.18C1351.55 2620.8 1367.42 2610.2 1384.89 2602.96C1402.36 2595.72 1421.09 2592 1440 2592L1440 2736L1296 2736Z" fill="black"/>
<path d="M145 2736C145 2717.09 148.725 2698.36 155.961 2680.89C163.198 2663.42 173.805 2647.55 187.177 2634.18C200.548 2620.8 216.423 2610.2 233.894 2602.96C251.364 2595.72 270.09 2592 289 2592L289 2736L145 2736Z" fill="black"/>
<path d="M725.255 560.468C725.255 560.507 725.255 560.547 725.255 560.594C725.255 560.634 725.255 560.674 725.255 560.713C725.123 567.859 719.029 573.612 711.54 573.612H697.833C697.833 566.957 702.994 561.457 709.682 560.587C702.986 559.716 697.833 554.216 697.833 547.562H711.548C719.038 547.562 725.123 553.322 725.255 560.468Z" fill="black"/>
<path d="M725.264 560.468C725.264 560.508 725.264 560.547 725.264 560.595C725.264 560.547 725.255 560.508 725.264 560.468Z" fill="black"/>
<path d="M697.825 573.611V586.755C690.253 586.755 684.11 580.868 684.11 573.611V560.468C691.69 560.468 697.825 566.355 697.825 573.611Z" fill="black"/>
<path d="M1012.52 547.316V560.46H998.803C998.803 553.204 1004.95 547.316 1012.52 547.316Z" fill="black"/>
<path d="M1012.52 560.468V586.51C1005.03 586.51 998.936 580.757 998.803 573.612C998.803 573.572 998.803 573.532 998.803 573.493C998.803 573.453 998.803 573.406 998.803 573.366C998.936 566.221 1005.03 560.468 1012.52 560.468Z" fill="black"/>
<path d="M1049.45 573.366H1060.53C1060.53 580.623 1054.38 586.51 1046.81 586.51V547.316C1054.39 547.316 1060.53 553.204 1060.53 560.46C1060.53 566.862 1055.76 572.187 1049.45 573.366Z" fill="black"/>
<path d="M1039.95 573.365C1039.95 573.405 1039.95 573.444 1039.95 573.492C1039.95 573.531 1039.95 573.571 1039.95 573.611C1039.82 580.756 1033.72 586.509 1026.23 586.509H1012.52C1012.52 579.854 1017.68 574.354 1024.38 573.484C1017.68 572.614 1012.53 567.114 1012.52 560.459H1026.23C1033.72 560.459 1039.82 566.22 1039.95 573.365Z" fill="black"/>
<path d="M1101.56 560.413C1101.56 560.453 1101.56 560.492 1101.56 560.54C1101.56 560.579 1101.56 560.619 1101.56 560.659C1101.43 567.804 1095.34 573.557 1087.85 573.557H1074.13C1074.13 566.902 1079.29 561.402 1085.98 560.532C1079.28 559.661 1074.13 554.162 1074.13 547.507H1087.85C1095.34 547.515 1101.43 553.268 1101.56 560.413Z" fill="black"/>
<path d="M1101.57 560.413C1101.57 560.453 1101.57 560.493 1101.57 560.54C1101.57 560.5 1101.56 560.453 1101.57 560.413Z" fill="black"/>
<path d="M1129 573.565H1115.28C1107.8 573.565 1101.71 567.812 1101.57 560.666C1101.57 560.627 1101.57 560.587 1101.57 560.548C1101.57 560.508 1101.57 560.461 1101.57 560.421C1101.7 553.275 1107.8 547.515 1115.28 547.515H1129C1129 554.17 1123.85 559.669 1117.15 560.54C1123.84 561.41 1129 566.91 1129 573.565Z" fill="black"/>
<path d="M932.23 547.269V560.412C925.286 560.412 919.547 555.475 918.639 549.057C917.731 555.475 911.992 560.412 905.048 560.412V547.269C905.048 540.091 911.051 534.252 918.515 534.125C918.556 534.125 918.598 534.125 918.647 534.125C918.688 534.125 918.73 534.125 918.771 534.125C926.227 534.26 932.23 540.091 932.23 547.269Z" fill="black"/>
<path d="M932.23 560.413V573.557C932.23 580.734 926.227 586.566 918.771 586.701C918.73 586.701 918.688 586.701 918.647 586.701C918.606 586.701 918.556 586.701 918.515 586.701C911.059 586.574 905.048 580.734 905.048 573.557V560.413C911.992 560.413 917.731 565.359 918.639 571.768C919.547 565.359 925.286 560.413 932.23 560.413Z" fill="black"/>
<path d="M750.399 573.557C750.357 573.557 750.316 573.557 750.266 573.557C750.316 573.557 750.357 573.565 750.399 573.557Z" fill="black"/>
<path d="M813.756 573.565H800.041C792.551 573.565 786.458 567.812 786.326 560.666C786.326 560.627 786.326 560.587 786.326 560.548C786.326 560.508 786.326 560.461 786.326 560.421C786.458 553.275 792.551 547.515 800.041 547.515H813.756C813.756 554.17 808.603 559.669 801.907 560.54C808.603 561.41 813.756 566.91 813.756 573.565Z" fill="black"/>
<path d="M876.332 560.412V573.556C868.76 573.556 862.616 567.669 862.616 560.412V547.269C870.188 547.269 876.332 553.148 876.332 560.412Z" fill="black"/>
<path d="M841.186 560.413C841.186 560.453 841.186 560.492 841.186 560.54C841.186 560.579 841.186 560.619 841.186 560.659C841.054 567.804 834.96 573.557 827.471 573.557H813.756C813.756 566.902 818.917 561.402 825.613 560.532C818.917 559.661 813.756 554.162 813.756 547.507H827.471C834.969 547.515 841.054 553.268 841.186 560.413Z" fill="black"/>
<path d="M841.195 560.413C841.195 560.453 841.195 560.493 841.195 560.54C841.195 560.5 841.186 560.453 841.195 560.413Z" fill="black"/>
<path d="M820.618 580.187V586.763C816.828 586.763 813.756 583.819 813.756 580.187C813.756 583.819 810.684 586.763 806.894 586.763V580.187C806.894 576.555 809.966 573.611 813.756 573.611C817.546 573.611 820.618 576.555 820.618 580.187Z" fill="black"/>
<path d="M890.047 553.837H883.185C879.395 553.837 876.323 550.893 876.323 547.261H883.185C886.975 547.269 890.047 550.212 890.047 553.837Z" fill="black"/>
<path d="M767.99 547.269V560.412C767.99 567.59 761.987 573.429 754.531 573.556C754.489 573.556 754.448 573.556 754.407 573.556C754.365 573.556 754.316 573.556 754.275 573.556C746.818 573.429 740.807 567.59 740.807 560.412V547.269C747.751 547.269 753.49 552.214 754.398 558.624C755.307 552.214 761.046 547.269 767.99 547.269Z" fill="black"/>
<path d="M750.522 573.557C750.481 573.557 750.44 573.557 750.398 573.557C750.44 573.565 750.481 573.557 750.522 573.557Z" fill="black"/>
<path d="M855.755 547.269H862.617C862.617 550.901 859.545 553.844 855.755 553.844H848.893C848.893 550.212 851.965 547.269 855.755 547.269Z" fill="black"/>
<path d="M966.191 547.269V560.412C966.191 567.669 960.048 573.556 952.476 573.556V560.412C952.476 553.148 958.611 547.269 966.191 547.269Z" fill="black"/>
<path d="M979.906 566.98C979.906 570.612 976.835 573.556 973.045 573.556H966.183C966.183 569.924 969.255 566.98 973.045 566.98C969.255 566.98 966.183 564.045 966.183 560.412C966.183 556.78 969.255 553.837 973.045 553.837C969.255 553.837 966.183 550.893 966.183 547.261H973.045C976.835 547.261 979.906 550.204 979.906 553.837C979.906 557.445 976.868 560.381 973.111 560.412C973.094 560.412 973.069 560.412 973.053 560.412H973.111C976.868 560.444 979.906 563.372 979.906 566.98Z" fill="black"/>
<path d="M663.869 547.316V560.46C663.869 567.637 657.866 573.469 650.402 573.604C650.36 573.604 650.319 573.604 650.278 573.604C650.236 573.604 650.187 573.604 650.146 573.604C642.689 573.477 636.686 567.637 636.686 560.46C636.686 567.637 630.683 573.469 623.219 573.604C623.178 573.604 623.136 573.604 623.095 573.604C623.054 573.604 623.004 573.604 622.963 573.604C615.507 573.477 609.504 567.637 609.504 560.46V547.316C616.448 547.316 622.187 552.262 623.095 558.68C624.003 552.262 629.742 547.316 636.686 547.316C643.631 547.316 649.369 552.262 650.278 558.68C651.186 552.262 656.933 547.316 663.869 547.316Z" fill="black"/>
<path d="M623.227 573.604C623.186 573.604 623.145 573.604 623.103 573.604C623.145 573.613 623.186 573.604 623.227 573.604Z" fill="black"/>
<path d="M650.286 573.604C650.245 573.604 650.203 573.604 650.154 573.604C650.195 573.604 650.237 573.613 650.286 573.604Z" fill="black"/>
<path d="M622.971 573.604C623.013 573.604 623.054 573.604 623.104 573.604C623.062 573.613 623.021 573.613 622.971 573.604Z" fill="black"/>
<path d="M650.41 573.604C650.369 573.604 650.327 573.604 650.286 573.604C650.327 573.613 650.369 573.604 650.41 573.604Z" fill="black"/>
<path d="M733.43 483.05V469.906C725.859 469.906 719.715 475.794 719.715 483.05H733.43Z" fill="black"/>
<path d="M733.439 496.194C733.439 503.371 727.436 509.211 719.971 509.337C719.93 509.337 719.889 509.337 719.847 509.337C719.806 509.337 719.756 509.337 719.715 509.337C712.259 509.211 706.256 503.371 706.256 496.194H719.715C712.143 496.194 706 490.306 706 483.05V469.906C713.572 469.906 719.715 475.794 719.715 483.05C727.295 483.05 733.43 488.929 733.439 496.194Z" fill="black"/>
<path d="M862.573 496.075C869.27 496.946 874.43 502.445 874.43 509.1H860.715C853.226 509.1 847.132 503.347 847 496.194C847 496.154 847 496.115 847 496.075C847 496.036 847 495.996 847 495.956C847.132 488.811 853.226 483.05 860.715 483.05C853.226 483.05 847.132 477.297 847 470.144C847 470.104 847 470.065 847 470.025C847 469.985 847 469.946 847 469.906C847.132 462.761 853.226 457 860.715 457H874.43C874.43 463.655 869.27 469.155 862.573 470.025C869.27 470.895 874.43 476.395 874.43 483.05C874.439 489.705 869.27 495.205 862.573 496.075Z" fill="black"/>
<path d="M939.715 496.241V509.385C932.143 509.385 926 503.498 926 496.241V483.098C933.572 483.098 939.715 488.985 939.715 496.241Z" fill="black"/>
<path d="M953.43 483.098V496.241C953.43 503.498 947.287 509.385 939.715 509.385V496.241C939.715 488.985 945.859 483.098 953.43 483.098Z" fill="black"/>
<path d="M811.154 496.194C811.154 503.458 805.01 509.338 797.439 509.338C789.858 509.338 783.723 503.45 783.723 496.194H797.439C789.875 496.194 783.748 490.338 783.723 483.098V469.954C791.279 469.954 797.414 475.818 797.439 483.05C805.01 483.05 811.154 488.93 811.154 496.194Z" fill="black"/>
<path d="M776.862 469.954H783.723C783.723 473.586 780.652 476.53 776.862 476.53H770C770 472.898 773.072 469.954 776.862 469.954Z" fill="black"/>
<path d="M664.365 483.098V496.242C657.421 496.242 651.682 491.304 650.774 484.886C649.866 491.304 644.127 496.242 637.183 496.242C630.238 496.242 624.5 491.304 623.591 484.886C622.683 491.304 616.944 496.242 610 496.242V483.098C610 475.921 616.003 470.081 623.459 469.954C623.501 469.954 623.542 469.954 623.591 469.954C623.633 469.954 623.674 469.954 623.715 469.954C631.171 470.081 637.183 475.921 637.183 483.098C637.183 475.921 643.186 470.081 650.642 469.954C650.683 469.954 650.724 469.954 650.774 469.954C650.815 469.954 650.857 469.954 650.898 469.954C658.362 470.089 664.365 475.921 664.365 483.098Z" fill="black"/>
<path d="M946.569 469.954C946.569 473.586 943.497 476.53 939.707 476.53H932.845C932.845 472.898 935.917 469.954 939.707 469.954H946.569Z" fill="black"/>
<path d="M770.715 632.784V645.928C763.143 645.928 757 640.041 757 632.784V619.641C764.58 619.641 770.715 625.528 770.715 632.784Z" fill="black"/>
<path d="M661.962 622.151C661.921 622.151 661.88 622.151 661.839 622.151C661.88 622.142 661.921 622.142 661.962 622.151Z" fill="black"/>
<path d="M623.715 648.43C623.674 648.43 623.633 648.43 623.591 648.43C623.633 648.438 623.674 648.43 623.715 648.43Z" fill="black"/>
<path d="M623.592 648.43C623.55 648.43 623.509 648.43 623.459 648.43C623.501 648.43 623.55 648.438 623.592 648.43Z" fill="black"/>
<path d="M898.6 648.431C898.559 648.431 898.517 648.431 898.468 648.431C898.509 648.431 898.55 648.439 898.6 648.431Z" fill="black"/>
<path d="M912.183 622.144V635.287C912.183 642.465 906.18 648.297 898.715 648.431C898.674 648.431 898.633 648.431 898.591 648.431C898.55 648.431 898.501 648.431 898.459 648.431C891.003 648.304 885 642.465 885 635.287V622.144C891.944 622.144 897.683 627.089 898.591 633.507C899.5 627.089 905.247 622.144 912.183 622.144Z" fill="black"/>
<path d="M898.723 648.431C898.682 648.431 898.641 648.431 898.6 648.431C898.641 648.439 898.682 648.431 898.723 648.431Z" fill="black"/>
<path d="M742.314 622.152C742.272 622.152 742.223 622.152 742.181 622.152C742.231 622.143 742.272 622.143 742.314 622.152Z" fill="black"/>
<path d="M637.183 622.144V635.287C637.183 642.465 631.18 648.297 623.715 648.431C623.674 648.431 623.633 648.431 623.591 648.431C623.55 648.431 623.501 648.431 623.459 648.431C616.003 648.304 610 642.472 610 635.295V622.151C616.944 622.151 622.683 627.097 623.591 633.515C624.5 627.089 630.238 622.144 637.183 622.144Z" fill="black"/>
<path d="M684.183 635.659V648.803C677.238 648.803 671.5 643.857 670.591 637.44C669.683 643.857 663.944 648.803 657 648.803V635.659C657 628.482 663.003 622.642 670.467 622.516C670.509 622.516 670.55 622.516 670.591 622.516C670.633 622.516 670.674 622.516 670.715 622.516C678.18 622.642 684.183 628.474 684.183 635.659Z" fill="black"/>
<path d="M736.183 635.659V648.803C729.238 648.803 723.5 643.865 722.591 637.448C721.683 643.865 715.944 648.803 709 648.803V635.659C709 628.482 715.003 622.642 722.467 622.516C722.509 622.516 722.55 622.516 722.6 622.516C722.641 622.516 722.682 622.516 722.723 622.516C730.18 622.642 736.183 628.474 736.183 635.659Z" fill="black"/>
<path d="M783.723 635.295H776.862C773.072 635.295 770 632.351 770 628.719H776.862C780.652 628.719 783.723 631.662 783.723 635.295Z" fill="black"/>
<path d="M810.906 635.294V648.438C810.906 655.615 804.903 661.447 797.439 661.581C797.397 661.581 797.356 661.581 797.315 661.581C797.274 661.581 797.224 661.581 797.183 661.581C789.726 661.455 783.724 655.615 783.724 648.438V635.294C790.668 635.294 796.407 640.24 797.315 646.649C798.223 640.232 803.962 635.294 810.906 635.294Z" fill="black"/>
<path d="M797.439 661.574C797.397 661.574 797.356 661.574 797.315 661.574C797.356 661.582 797.397 661.574 797.439 661.574Z" fill="black"/>
<path d="M810.906 622.144V635.288C803.962 635.288 798.223 630.342 797.315 623.932C796.407 630.35 790.668 635.288 783.724 635.288V622.144C783.724 614.967 789.726 609.135 797.183 609C797.224 609 797.265 609 797.315 609C797.356 609 797.397 609 797.439 609C804.895 609.135 810.906 614.967 810.906 622.144Z" fill="black"/>
<path d="M797.315 609.007C797.274 609.007 797.224 609.007 797.183 609.007C797.232 608.999 797.274 608.999 797.315 609.007Z" fill="black"/>
<path d="M797.315 661.574C797.274 661.574 797.232 661.574 797.183 661.574C797.224 661.574 797.274 661.582 797.315 661.574Z" fill="black"/>
<path d="M872.154 648.414C872.154 655.67 866.011 661.558 858.439 661.558C850.867 661.558 844.724 655.67 844.724 648.414H858.439C850.875 648.414 844.748 642.55 844.724 635.318V622.174C852.279 622.174 858.414 628.03 858.439 635.27C866.011 635.262 872.154 641.15 872.154 648.414Z" fill="black"/>
<path d="M837.862 622.174H844.723C844.723 625.806 841.652 628.75 837.862 628.75H831C831.008 625.11 834.072 622.174 837.862 622.174Z" fill="black"/>
<path d="M944.6 648.454C944.558 648.454 944.517 648.454 944.467 648.454C944.509 648.454 944.55 648.462 944.6 648.454Z" fill="black"/>
<path d="M958.183 622.174V635.318C958.183 642.495 952.18 648.327 944.723 648.461C944.682 648.461 944.641 648.461 944.6 648.461C944.558 648.461 944.509 648.461 944.468 648.461C937.011 648.335 931 642.495 931 635.318V622.174C937.944 622.174 943.683 627.12 944.591 633.529C945.508 627.112 951.238 622.174 958.183 622.174Z" fill="black"/>
<path d="M944.723 648.454C944.682 648.454 944.641 648.454 944.6 648.454C944.641 648.462 944.682 648.454 944.723 648.454Z" fill="black"/>
<path d="M951.329 609.022C951.329 612.655 948.258 615.598 944.467 615.598H937.606C937.606 611.966 940.677 609.022 944.467 609.022H951.329Z" fill="black"/>
<mask id="mask0" mask-type="alpha" maskUnits="userSpaceOnUse" x="700" y="866" width="472" height="292">
<path d="M725.052 964.99L700 872.497L703.265 872.053L725.052 952.399L748.472 866L771.948 952.399L795.368 866L818.788 952.399L842.208 866L865.628 952.399L889.104 866L912.524 952.399L935.944 866L959.42 952.399L982.84 866L1006.26 952.399L1029.68 866L1053.16 952.4L1076.58 866L1100 952.4L1123.47 866L1146.89 952.4L1168.73 872.053L1172 872.497L1146.89 964.95L1123.47 878.55L1100 964.99L1076.58 878.59L1053.16 964.99L1029.68 878.59L1006.26 964.99L982.84 878.59L959.42 964.99L935.944 878.59L912.524 964.99L889.104 878.59L865.628 964.99L842.208 878.59L818.788 964.99L795.368 878.59L771.948 964.99L748.472 878.59L725.052 964.99Z" fill="#1D1D1B"/>
<path d="M725.052 992.392L700 899.938L703.265 899.494L725.052 979.841L748.472 893.441L771.948 979.841L795.368 893.441L818.788 979.841L842.208 893.441L865.628 979.841L889.104 893.441L912.524 979.841L935.944 893.441L959.42 979.841L982.84 893.441L1006.26 979.841L1029.68 893.441L1053.16 979.841L1076.58 893.441L1100 979.841L1123.47 893.441L1146.89 979.841L1168.73 899.494L1172 899.938L1146.89 992.392L1123.47 905.992L1100 992.392L1076.58 905.992L1053.16 992.392L1029.68 905.992L1006.26 992.392L982.84 905.992L959.42 992.392L935.944 905.992L912.524 992.392L889.104 905.992L865.628 992.392L842.208 905.992L818.788 992.392L795.368 905.992L771.948 992.392L748.472 905.992L725.052 992.392Z" fill="#1D1D1B"/>
<path d="M725.052 1019.83L700 927.38L703.265 926.936L725.052 1007.28L748.472 920.883L771.948 1007.28L795.368 920.883L818.788 1007.28L842.208 920.883L865.628 1007.28L889.104 920.883L912.524 1007.28L935.944 920.883L959.42 1007.28L982.84 920.883L1006.26 1007.28L1029.68 920.883L1053.16 1007.28L1076.58 920.883L1100 1007.28L1123.47 920.883L1146.89 1007.28L1168.73 926.936L1172 927.38L1146.89 1019.83L1123.47 933.433L1100 1019.83L1076.58 933.433L1053.16 1019.83L1029.68 933.433L1006.26 1019.83L982.84 933.433L959.42 1019.83L935.944 933.433L912.524 1019.83L889.104 933.433L865.628 1019.83L842.208 933.433L818.788 1019.83L795.368 933.433L771.948 1019.83L748.472 933.433L725.052 1019.83Z" fill="#1D1D1B"/>
<path d="M725.052 1047.27L700 954.82L703.265 954.376L725.052 1034.68L748.472 948.283L771.948 1034.68L795.368 948.283L818.788 1034.68L842.208 948.283L865.628 1034.68L889.104 948.283L912.524 1034.68L935.944 948.283L959.42 1034.68L982.84 948.283L1006.26 1034.68L1029.68 948.283L1053.16 1034.68L1076.58 948.283L1100 1034.68L1123.47 948.323L1146.89 1034.72L1168.73 954.376L1172 954.82L1146.89 1047.27L1123.47 960.874L1100 1047.27L1076.58 960.874L1053.16 1047.27L1029.68 960.873L1006.26 1047.27L982.84 960.873L959.42 1047.27L935.944 960.873L912.524 1047.27L889.104 960.873L865.628 1047.27L842.208 960.873L818.788 1047.27L795.368 960.873L771.948 1047.27L748.472 960.873L725.052 1047.27Z" fill="#1D1D1B"/>
<path d="M725.052 1074.72L700 982.265L703.265 981.78L725.052 1062.13L748.472 975.727L771.948 1062.13L795.368 975.727L818.788 1062.13L842.208 975.727L865.628 1062.13L889.104 975.727L912.524 1062.13L935.944 975.727L959.42 1062.13L982.84 975.727L1006.26 1062.13L1029.68 975.727L1053.16 1062.13L1076.58 975.727L1100 1062.13L1123.47 975.727L1146.89 1062.13L1168.73 981.78L1172 982.265L1146.89 1074.72L1123.47 988.318L1100 1074.72L1076.58 988.318L1053.16 1074.72L1029.68 988.318L1006.26 1074.72L982.84 988.318L959.42 1074.72L935.944 988.318L912.524 1074.72L889.104 988.318L865.628 1074.72L842.208 988.318L818.788 1074.72L795.368 988.318L771.948 1074.72L748.472 988.318L725.052 1074.72Z" fill="#1D1D1B"/>
<path d="M725.052 1102.16L700 1009.71L703.265 1009.22L725.052 1089.57L748.472 1003.17L771.948 1089.57L795.368 1003.17L818.788 1089.57L842.208 1003.17L865.628 1089.57L889.104 1003.17L912.524 1089.57L935.944 1003.17L959.42 1089.57L982.84 1003.17L1006.26 1089.57L1029.68 1003.17L1053.16 1089.57L1076.58 1003.17L1100 1089.57L1123.47 1003.17L1146.89 1089.57L1168.73 1009.22L1172 1009.71L1146.89 1102.12L1123.47 1015.76L1100 1102.16L1076.58 1015.76L1053.16 1102.16L1029.68 1015.76L1006.26 1102.16L982.84 1015.76L959.42 1102.16L935.944 1015.76L912.524 1102.16L889.104 1015.76L865.628 1102.16L842.208 1015.76L818.788 1102.16L795.368 1015.76L771.948 1102.16L748.472 1015.76L725.052 1102.16Z" fill="#1D1D1B"/>
<path d="M725.052 1129.56L700 1037.11L703.265 1036.66L725.052 1117.01L748.472 1030.61L771.948 1117.01L795.368 1030.61L818.788 1117.01L842.208 1030.61L865.628 1117.01L889.104 1030.61L912.524 1117.01L935.944 1030.61L959.42 1117.01L982.84 1030.61L1006.26 1117.01L1029.68 1030.61L1053.16 1117.01L1076.58 1030.61L1100 1117.01L1123.47 1030.61L1146.89 1117.01L1168.73 1036.66L1172 1037.11L1146.89 1129.56L1123.47 1043.16L1100 1129.56L1076.58 1043.16L1053.16 1129.56L1029.68 1043.16L1006.26 1129.56L982.84 1043.16L959.42 1129.56L935.944 1043.16L912.524 1129.56L889.104 1043.16L865.628 1129.56L842.208 1043.16L818.788 1129.56L795.368 1043.16L771.948 1129.56L748.472 1043.2L725.052 1129.56Z" fill="#1D1D1B"/>
<path d="M725.052 1157L700 1064.55L703.265 1064.1L725.052 1144.45L748.472 1058.05L771.948 1144.45L795.368 1058.05L818.788 1144.45L842.208 1058.05L865.628 1144.45L889.104 1058.05L912.524 1144.45L935.944 1058.05L959.42 1144.45L982.84 1058.05L1006.26 1144.45L1029.68 1058.05L1053.16 1144.45L1076.58 1058.05L1100 1144.45L1123.47 1058.05L1146.89 1144.45L1168.73 1064.1L1172 1064.55L1146.89 1157L1123.47 1070.6L1100 1157L1076.58 1070.6L1053.16 1157L1029.68 1070.6L1006.26 1157L982.84 1070.6L959.42 1157L935.944 1070.6L912.524 1157L889.104 1070.6L865.628 1157L842.208 1070.6L818.788 1157L795.368 1070.6L771.948 1157L748.472 1070.6L725.052 1157Z" fill="#1D1D1B"/>
</mask>
<g mask="url(#mask0)">
<rect x="1146.87" y="867" width="292" height="421.741" transform="rotate(90 1146.87 867)" fill="black"/>
</g>
<mask id="mask1" mask-type="alpha" maskUnits="userSpaceOnUse" x="842" y="1437" width="475" height="292">
<path d="M867.212 1535.99L842 1443.5L845.286 1443.05L867.212 1523.4L890.78 1437L914.406 1523.4L937.974 1437L961.543 1523.4L985.112 1437L1008.68 1523.4L1032.31 1437L1055.87 1523.4L1079.44 1437L1103.07 1523.4L1126.64 1437L1150.21 1523.4L1173.77 1437L1197.4 1523.4L1220.97 1437L1244.54 1523.4L1268.16 1437L1291.73 1523.4L1313.71 1443.05L1317 1443.5L1291.73 1535.95L1268.16 1449.55L1244.54 1535.99L1220.97 1449.59L1197.4 1535.99L1173.77 1449.59L1150.21 1535.99L1126.64 1449.59L1103.07 1535.99L1079.44 1449.59L1055.87 1535.99L1032.31 1449.59L1008.68 1535.99L985.112 1449.59L961.543 1535.99L937.974 1449.59L914.406 1535.99L890.78 1449.59L867.212 1535.99Z" fill="#1D1D1B"/>
<path d="M867.212 1563.39L842 1470.94L845.286 1470.49L867.212 1550.84L890.78 1464.44L914.406 1550.84L937.974 1464.44L961.543 1550.84L985.112 1464.44L1008.68 1550.84L1032.31 1464.44L1055.87 1550.84L1079.44 1464.44L1103.07 1550.84L1126.64 1464.44L1150.21 1550.84L1173.77 1464.44L1197.4 1550.84L1220.97 1464.44L1244.54 1550.84L1268.16 1464.44L1291.73 1550.84L1313.71 1470.49L1317 1470.94L1291.73 1563.39L1268.16 1476.99L1244.54 1563.39L1220.97 1476.99L1197.4 1563.39L1173.77 1476.99L1150.21 1563.39L1126.64 1476.99L1103.07 1563.39L1079.44 1476.99L1055.87 1563.39L1032.31 1476.99L1008.68 1563.39L985.112 1476.99L961.543 1563.39L937.974 1476.99L914.406 1563.39L890.78 1476.99L867.212 1563.39Z" fill="#1D1D1B"/>
<path d="M867.212 1590.83L842 1498.38L845.286 1497.94L867.212 1578.28L890.78 1491.88L914.406 1578.28L937.974 1491.88L961.543 1578.28L985.112 1491.88L1008.68 1578.28L1032.31 1491.88L1055.87 1578.28L1079.44 1491.88L1103.07 1578.28L1126.64 1491.88L1150.21 1578.28L1173.77 1491.88L1197.4 1578.28L1220.97 1491.88L1244.54 1578.28L1268.16 1491.88L1291.73 1578.28L1313.71 1497.94L1317 1498.38L1291.73 1590.83L1268.16 1504.43L1244.54 1590.83L1220.97 1504.43L1197.4 1590.83L1173.77 1504.43L1150.21 1590.83L1126.64 1504.43L1103.07 1590.83L1079.44 1504.43L1055.87 1590.83L1032.31 1504.43L1008.68 1590.83L985.112 1504.43L961.543 1590.83L937.974 1504.43L914.406 1590.83L890.78 1504.43L867.212 1590.83Z" fill="#1D1D1B"/>
<path d="M867.212 1618.27L842 1525.82L845.286 1525.38L867.212 1605.68L890.78 1519.28L914.406 1605.68L937.974 1519.28L961.543 1605.68L985.112 1519.28L1008.68 1605.68L1032.31 1519.28L1055.87 1605.68L1079.44 1519.28L1103.07 1605.68L1126.64 1519.28L1150.21 1605.68L1173.77 1519.28L1197.4 1605.68L1220.97 1519.28L1244.54 1605.68L1268.16 1519.32L1291.73 1605.72L1313.71 1525.38L1317 1525.82L1291.73 1618.27L1268.16 1531.87L1244.54 1618.27L1220.97 1531.87L1197.4 1618.27L1173.77 1531.87L1150.21 1618.27L1126.64 1531.87L1103.07 1618.27L1079.44 1531.87L1055.87 1618.27L1032.31 1531.87L1008.68 1618.27L985.112 1531.87L961.543 1618.27L937.974 1531.87L914.406 1618.27L890.78 1531.87L867.212 1618.27Z" fill="#1D1D1B"/>
<path d="M867.212 1645.72L842 1553.26L845.286 1552.78L867.212 1633.13L890.78 1546.73L914.406 1633.13L937.974 1546.73L961.543 1633.13L985.112 1546.73L1008.68 1633.13L1032.31 1546.73L1055.87 1633.13L1079.44 1546.73L1103.07 1633.13L1126.64 1546.73L1150.21 1633.13L1173.77 1546.73L1197.4 1633.13L1220.97 1546.73L1244.54 1633.13L1268.16 1546.73L1291.73 1633.13L1313.71 1552.78L1317 1553.26L1291.73 1645.72L1268.16 1559.32L1244.54 1645.72L1220.97 1559.32L1197.4 1645.72L1173.77 1559.32L1150.21 1645.72L1126.64 1559.32L1103.07 1645.72L1079.44 1559.32L1055.87 1645.72L1032.31 1559.32L1008.68 1645.72L985.112 1559.32L961.543 1645.72L937.974 1559.32L914.406 1645.72L890.78 1559.32L867.212 1645.72Z" fill="#1D1D1B"/>
<path d="M867.212 1673.16L842 1580.71L845.286 1580.22L867.212 1660.57L890.78 1574.17L914.406 1660.57L937.974 1574.17L961.543 1660.57L985.112 1574.17L1008.68 1660.57L1032.31 1574.17L1055.87 1660.57L1079.44 1574.17L1103.07 1660.57L1126.64 1574.17L1150.21 1660.57L1173.77 1574.17L1197.4 1660.57L1220.97 1574.17L1244.54 1660.57L1268.16 1574.17L1291.73 1660.57L1313.71 1580.22L1317 1580.71L1291.73 1673.12L1268.16 1586.76L1244.54 1673.16L1220.97 1586.76L1197.4 1673.16L1173.77 1586.76L1150.21 1673.16L1126.64 1586.76L1103.07 1673.16L1079.44 1586.76L1055.87 1673.16L1032.31 1586.76L1008.68 1673.16L985.112 1586.76L961.543 1673.16L937.974 1586.76L914.406 1673.16L890.78 1586.76L867.212 1673.16Z" fill="#1D1D1B"/>
<path d="M867.212 1700.56L842 1608.11L845.286 1607.66L867.212 1688.01L890.78 1601.61L914.406 1688.01L937.974 1601.61L961.543 1688.01L985.112 1601.61L1008.68 1688.01L1032.31 1601.61L1055.87 1688.01L1079.44 1601.61L1103.07 1688.01L1126.64 1601.61L1150.21 1688.01L1173.77 1601.61L1197.4 1688.01L1220.97 1601.61L1244.54 1688.01L1268.16 1601.61L1291.73 1688.01L1313.71 1607.66L1317 1608.11L1291.73 1700.56L1268.16 1614.16L1244.54 1700.56L1220.97 1614.16L1197.4 1700.56L1173.77 1614.16L1150.21 1700.56L1126.64 1614.16L1103.07 1700.56L1079.44 1614.16L1055.87 1700.56L1032.31 1614.16L1008.68 1700.56L985.112 1614.16L961.543 1700.56L937.974 1614.16L914.406 1700.56L890.78 1614.2L867.212 1700.56Z" fill="#1D1D1B"/>
<path d="M867.212 1728L842 1635.55L845.286 1635.1L867.212 1715.45L890.78 1629.05L914.406 1715.45L937.974 1629.05L961.543 1715.45L985.112 1629.05L1008.68 1715.45L1032.31 1629.05L1055.87 1715.45L1079.44 1629.05L1103.07 1715.45L1126.64 1629.05L1150.21 1715.45L1173.77 1629.05L1197.4 1715.45L1220.97 1629.05L1244.54 1715.45L1268.16 1629.05L1291.73 1715.45L1313.71 1635.1L1317 1635.55L1291.73 1728L1268.16 1641.6L1244.54 1728L1220.97 1641.6L1197.4 1728L1173.77 1641.6L1150.21 1728L1126.64 1641.6L1103.07 1728L1079.44 1641.6L1055.87 1728L1032.31 1641.6L1008.68 1728L985.112 1641.6L961.543 1728L937.974 1641.6L914.406 1728L890.78 1641.6L867.212 1728Z" fill="#1D1D1B"/>
</mask>
<g mask="url(#mask1)">
<path d="M1291.71 1438L1291.71 1730L867.289 1730L867.289 1438L1291.71 1438Z" fill="black"/>
</g>
<mask id="mask2" mask-type="alpha" maskUnits="userSpaceOnUse" x="554" y="2158" width="475" height="292">
<path d="M579.212 2256.99L554 2164.5L557.286 2164.05L579.212 2244.4L602.78 2158L626.406 2244.4L649.974 2158L673.543 2244.4L697.112 2158L720.681 2244.4L744.306 2158L767.875 2244.4L791.443 2158L815.069 2244.4L838.637 2158L862.206 2244.4L885.775 2158L909.4 2244.4L932.969 2158L956.538 2244.4L980.163 2158L1003.73 2244.4L1025.71 2164.05L1029 2164.5L1003.73 2256.95L980.163 2170.55L956.538 2256.99L932.969 2170.59L909.4 2256.99L885.775 2170.59L862.206 2256.99L838.637 2170.59L815.069 2256.99L791.443 2170.59L767.875 2256.99L744.306 2170.59L720.681 2256.99L697.112 2170.59L673.543 2256.99L649.974 2170.59L626.406 2256.99L602.78 2170.59L579.212 2256.99Z" fill="#1D1D1B"/>
<path d="M579.212 2284.39L554 2191.94L557.286 2191.49L579.212 2271.84L602.78 2185.44L626.406 2271.84L649.974 2185.44L673.543 2271.84L697.112 2185.44L720.681 2271.84L744.306 2185.44L767.875 2271.84L791.443 2185.44L815.069 2271.84L838.637 2185.44L862.206 2271.84L885.775 2185.44L909.4 2271.84L932.969 2185.44L956.538 2271.84L980.163 2185.44L1003.73 2271.84L1025.71 2191.49L1029 2191.94L1003.73 2284.39L980.163 2197.99L956.538 2284.39L932.969 2197.99L909.4 2284.39L885.775 2197.99L862.206 2284.39L838.637 2197.99L815.069 2284.39L791.443 2197.99L767.875 2284.39L744.306 2197.99L720.681 2284.39L697.112 2197.99L673.543 2284.39L649.974 2197.99L626.406 2284.39L602.78 2197.99L579.212 2284.39Z" fill="#1D1D1B"/>
<path d="M579.212 2311.83L554 2219.38L557.286 2218.94L579.212 2299.28L602.78 2212.88L626.406 2299.28L649.974 2212.88L673.543 2299.28L697.112 2212.88L720.681 2299.28L744.306 2212.88L767.875 2299.28L791.443 2212.88L815.069 2299.28L838.637 2212.88L862.206 2299.28L885.775 2212.88L909.4 2299.28L932.969 2212.88L956.538 2299.28L980.163 2212.88L1003.73 2299.28L1025.71 2218.94L1029 2219.38L1003.73 2311.83L980.163 2225.43L956.538 2311.83L932.969 2225.43L909.4 2311.83L885.775 2225.43L862.206 2311.83L838.637 2225.43L815.069 2311.83L791.443 2225.43L767.875 2311.83L744.306 2225.43L720.681 2311.83L697.112 2225.43L673.543 2311.83L649.974 2225.43L626.406 2311.83L602.78 2225.43L579.212 2311.83Z" fill="#1D1D1B"/>
<path d="M579.212 2339.27L554 2246.82L557.286 2246.38L579.212 2326.68L602.78 2240.28L626.406 2326.68L649.974 2240.28L673.543 2326.68L697.112 2240.28L720.681 2326.68L744.306 2240.28L767.875 2326.68L791.443 2240.28L815.069 2326.68L838.637 2240.28L862.206 2326.68L885.775 2240.28L909.4 2326.68L932.969 2240.28L956.538 2326.68L980.163 2240.32L1003.73 2326.72L1025.71 2246.38L1029 2246.82L1003.73 2339.27L980.163 2252.87L956.538 2339.27L932.969 2252.87L909.4 2339.27L885.775 2252.87L862.206 2339.27L838.637 2252.87L815.069 2339.27L791.443 2252.87L767.875 2339.27L744.306 2252.87L720.681 2339.27L697.112 2252.87L673.543 2339.27L649.974 2252.87L626.406 2339.27L602.78 2252.87L579.212 2339.27Z" fill="#1D1D1B"/>
<path d="M579.212 2366.72L554 2274.26L557.286 2273.78L579.212 2354.13L602.78 2267.73L626.406 2354.13L649.974 2267.73L673.543 2354.13L697.112 2267.73L720.681 2354.13L744.306 2267.73L767.875 2354.13L791.443 2267.73L815.069 2354.13L838.637 2267.73L862.206 2354.13L885.775 2267.73L909.4 2354.13L932.969 2267.73L956.538 2354.13L980.163 2267.73L1003.73 2354.13L1025.71 2273.78L1029 2274.26L1003.73 2366.72L980.163 2280.32L956.538 2366.72L932.969 2280.32L909.4 2366.72L885.775 2280.32L862.206 2366.72L838.637 2280.32L815.069 2366.72L791.443 2280.32L767.875 2366.72L744.306 2280.32L720.681 2366.72L697.112 2280.32L673.543 2366.72L649.974 2280.32L626.406 2366.72L602.78 2280.32L579.212 2366.72Z" fill="#1D1D1B"/>
<path d="M579.212 2394.16L554 2301.71L557.286 2301.22L579.212 2381.57L602.78 2295.17L626.406 2381.57L649.974 2295.17L673.543 2381.57L697.112 2295.17L720.681 2381.57L744.306 2295.17L767.875 2381.57L791.443 2295.17L815.069 2381.57L838.637 2295.17L862.206 2381.57L885.775 2295.17L909.4 2381.57L932.969 2295.17L956.538 2381.57L980.163 2295.17L1003.73 2381.57L1025.71 2301.22L1029 2301.71L1003.73 2394.12L980.163 2307.76L956.538 2394.16L932.969 2307.76L909.4 2394.16L885.775 2307.76L862.206 2394.16L838.637 2307.76L815.069 2394.16L791.443 2307.76L767.875 2394.16L744.306 2307.76L720.681 2394.16L697.112 2307.76L673.543 2394.16L649.974 2307.76L626.406 2394.16L602.78 2307.76L579.212 2394.16Z" fill="#1D1D1B"/>
<path d="M579.212 2421.56L554 2329.11L557.286 2328.66L579.212 2409.01L602.78 2322.61L626.406 2409.01L649.974 2322.61L673.543 2409.01L697.112 2322.61L720.681 2409.01L744.306 2322.61L767.875 2409.01L791.443 2322.61L815.069 2409.01L838.637 2322.61L862.206 2409.01L885.775 2322.61L909.4 2409.01L932.969 2322.61L956.538 2409.01L980.163 2322.61L1003.73 2409.01L1025.71 2328.66L1029 2329.11L1003.73 2421.56L980.163 2335.16L956.538 2421.56L932.969 2335.16L909.4 2421.56L885.775 2335.16L862.206 2421.56L838.637 2335.16L815.069 2421.56L791.443 2335.16L767.875 2421.56L744.306 2335.16L720.681 2421.56L697.112 2335.16L673.543 2421.56L649.974 2335.16L626.406 2421.56L602.78 2335.2L579.212 2421.56Z" fill="#1D1D1B"/>
<path d="M579.212 2449L554 2356.55L557.286 2356.1L579.212 2436.45L602.78 2350.05L626.406 2436.45L649.974 2350.05L673.543 2436.45L697.112 2350.05L720.681 2436.45L744.306 2350.05L767.875 2436.45L791.443 2350.05L815.069 2436.45L838.637 2350.05L862.206 2436.45L885.775 2350.05L909.4 2436.45L932.969 2350.05L956.538 2436.45L980.163 2350.05L1003.73 2436.45L1025.71 2356.1L1029 2356.55L1003.73 2449L980.163 2362.6L956.538 2449L932.969 2362.6L909.4 2449L885.775 2362.6L862.206 2449L838.637 2362.6L815.069 2449L791.443 2362.6L767.875 2449L744.306 2362.6L720.681 2449L697.112 2362.6L673.543 2449L649.974 2362.6L626.406 2449L602.78 2362.6L579.212 2449Z" fill="#1D1D1B"/>
</mask>
<g mask="url(#mask2)">
<path d="M1003.71 2159L1003.71 2451L579.289 2451L579.289 2159L1003.71 2159Z" fill="black"/>
</g>
<mask id="mask3" mask-type="alpha" maskUnits="userSpaceOnUse" x="291" y="1416" width="292" height="475">
<path d="M389.991 1865.79L297.497 1891L297.053 1887.71L377.4 1865.79L291 1842.22L377.4 1818.59L291 1795.03L377.4 1771.46L291 1747.89L377.4 1724.32L291 1700.69L377.4 1677.13L291 1653.56L377.4 1629.93L291 1606.36L377.4 1582.79L291 1559.23L377.4 1535.6L291 1512.03L377.4 1488.46L291 1464.84L377.4 1441.27L297.053 1419.29L297.497 1416L389.95 1441.27L303.55 1464.84L389.991 1488.46L303.591 1512.03L389.991 1535.6L303.591 1559.23L389.991 1582.79L303.591 1606.36L389.991 1629.93L303.591 1653.56L389.991 1677.13L303.591 1700.69L389.991 1724.32L303.591 1747.89L389.991 1771.46L303.591 1795.03L389.991 1818.59L303.591 1842.22L389.991 1865.79Z" fill="#1D1D1B"/>
<path d="M417.392 1865.79L324.939 1891L324.495 1887.71L404.842 1865.79L318.442 1842.22L404.842 1818.59L318.442 1795.03L404.842 1771.46L318.442 1747.89L404.842 1724.32L318.442 1700.69L404.842 1677.13L318.442 1653.56L404.842 1629.93L318.442 1606.36L404.842 1582.79L318.442 1559.23L404.842 1535.6L318.442 1512.03L404.842 1488.46L318.442 1464.84L404.842 1441.27L324.495 1419.29L324.939 1416L417.392 1441.27L330.992 1464.84L417.392 1488.46L330.992 1512.03L417.392 1535.6L330.992 1559.23L417.392 1582.79L330.992 1606.36L417.392 1629.93L330.992 1653.56L417.392 1677.13L330.992 1700.69L417.392 1724.32L330.992 1747.89L417.392 1771.46L330.992 1795.03L417.392 1818.59L330.992 1842.22L417.392 1865.79Z" fill="#1D1D1B"/>
<path d="M444.833 1865.79L352.38 1891L351.936 1887.71L432.282 1865.79L345.882 1842.22L432.282 1818.59L345.882 1795.03L432.282 1771.46L345.882 1747.89L432.282 1724.32L345.882 1700.69L432.282 1677.13L345.882 1653.56L432.282 1629.93L345.882 1606.36L432.282 1582.79L345.882 1559.23L432.282 1535.6L345.882 1512.03L432.282 1488.46L345.882 1464.84L432.282 1441.27L351.936 1419.29L352.38 1416L444.833 1441.27L358.433 1464.84L444.833 1488.46L358.433 1512.03L444.833 1535.6L358.433 1559.23L444.833 1582.79L358.433 1606.36L444.833 1629.93L358.433 1653.56L444.833 1677.13L358.433 1700.69L444.833 1724.32L358.433 1747.89L444.833 1771.46L358.433 1795.03L444.833 1818.59L358.433 1842.22L444.833 1865.79Z" fill="#1D1D1B"/>
<path d="M472.273 1865.79L379.82 1891L379.376 1887.71L459.682 1865.79L373.283 1842.22L459.682 1818.59L373.283 1795.03L459.682 1771.46L373.283 1747.89L459.682 1724.32L373.283 1700.69L459.682 1677.13L373.283 1653.56L459.682 1629.93L373.283 1606.36L459.682 1582.79L373.283 1559.23L459.682 1535.6L373.283 1512.03L459.682 1488.46L373.323 1464.84L459.723 1441.27L379.376 1419.29L379.82 1416L472.273 1441.27L385.873 1464.84L472.273 1488.46L385.873 1512.03L472.273 1535.6L385.873 1559.23L472.273 1582.79L385.873 1606.36L472.273 1629.93L385.873 1653.56L472.273 1677.13L385.873 1700.69L472.273 1724.32L385.873 1747.89L472.273 1771.46L385.873 1795.03L472.273 1818.59L385.873 1842.22L472.273 1865.79Z" fill="#1D1D1B"/>
<path d="M499.718 1865.79L407.264 1891L406.78 1887.71L487.127 1865.79L400.727 1842.22L487.127 1818.59L400.727 1795.03L487.127 1771.46L400.727 1747.89L487.127 1724.32L400.727 1700.69L487.127 1677.13L400.727 1653.56L487.127 1629.93L400.727 1606.36L487.127 1582.79L400.727 1559.23L487.127 1535.6L400.727 1512.03L487.127 1488.46L400.727 1464.84L487.127 1441.27L406.78 1419.29L407.264 1416L499.718 1441.27L413.318 1464.84L499.718 1488.46L413.318 1512.03L499.718 1535.6L413.318 1559.23L499.718 1582.79L413.318 1606.36L499.718 1629.93L413.318 1653.56L499.718 1677.13L413.318 1700.69L499.718 1724.32L413.318 1747.89L499.718 1771.46L413.318 1795.03L499.718 1818.59L413.318 1842.22L499.718 1865.79Z" fill="#1D1D1B"/>
<path d="M527.159 1865.79L434.706 1891L434.221 1887.71L514.568 1865.79L428.168 1842.22L514.568 1818.59L428.168 1795.03L514.568 1771.46L428.168 1747.89L514.568 1724.32L428.168 1700.69L514.568 1677.13L428.168 1653.56L514.568 1629.93L428.168 1606.36L514.568 1582.79L428.168 1559.23L514.568 1535.6L428.168 1512.03L514.568 1488.46L428.168 1464.84L514.568 1441.27L434.222 1419.29L434.706 1416L527.119 1441.27L440.759 1464.84L527.159 1488.46L440.759 1512.03L527.159 1535.6L440.759 1559.23L527.159 1582.79L440.759 1606.36L527.159 1629.93L440.759 1653.56L527.159 1677.13L440.759 1700.69L527.159 1724.32L440.759 1747.89L527.159 1771.46L440.759 1795.03L527.159 1818.59L440.759 1842.22L527.159 1865.79Z" fill="#1D1D1B"/>
<path d="M554.56 1865.79L462.106 1891L461.663 1887.71L542.009 1865.79L455.609 1842.22L542.009 1818.59L455.609 1795.03L542.009 1771.46L455.609 1747.89L542.009 1724.32L455.609 1700.69L542.009 1677.13L455.609 1653.56L542.009 1629.93L455.609 1606.36L542.009 1582.79L455.609 1559.23L542.009 1535.6L455.609 1512.03L542.009 1488.46L455.609 1464.84L542.009 1441.27L461.663 1419.29L462.107 1416L554.56 1441.27L468.16 1464.84L554.56 1488.46L468.16 1512.03L554.56 1535.6L468.16 1559.23L554.56 1582.79L468.16 1606.36L554.56 1629.93L468.16 1653.56L554.56 1677.13L468.16 1700.69L554.56 1724.32L468.16 1747.89L554.56 1771.46L468.16 1795.03L554.56 1818.59L468.2 1842.22L554.56 1865.79Z" fill="#1D1D1B"/>
<path d="M582 1865.79L489.547 1891L489.103 1887.71L569.45 1865.79L483.05 1842.22L569.45 1818.59L483.05 1795.03L569.45 1771.46L483.05 1747.89L569.45 1724.32L483.05 1700.69L569.45 1677.13L483.05 1653.56L569.45 1629.93L483.05 1606.36L569.45 1582.79L483.05 1559.23L569.45 1535.6L483.05 1512.03L569.45 1488.46L483.05 1464.84L569.45 1441.27L489.103 1419.29L489.547 1416L582 1441.27L495.6 1464.84L582 1488.46L495.6 1512.03L582 1535.6L495.6 1559.23L582 1582.79L495.6 1606.36L582 1629.93L495.6 1653.56L582 1677.13L495.6 1700.69L582 1724.32L495.6 1747.89L582 1771.46L495.6 1795.03L582 1818.59L495.6 1842.22L582 1865.79Z" fill="#1D1D1B"/>
</mask>
<g mask="url(#mask3)">
<path d="M292 1441.29H584V1865.71H292V1441.29Z" fill="black"/>
</g>
<path d="M488.728 215.708V225.563C483.383 225.563 478.99 221.651 478.494 216.654C477.999 221.651 473.605 225.563 468.26 225.563C462.916 225.563 458.518 221.651 458.023 216.654C457.528 221.651 453.134 225.563 447.789 225.563V215.708C447.789 210.295 452.341 205.903 457.977 205.855C457.992 205.855 458.008 205.855 458.023 205.855C458.039 205.855 458.054 205.855 458.069 205.855C463.705 205.903 468.257 210.298 468.257 215.708C468.257 210.295 472.809 205.903 478.445 205.855C478.46 205.855 478.476 205.855 478.491 205.855C478.506 205.855 478.522 205.855 478.537 205.855C484.176 205.903 488.728 210.298 488.728 215.708Z" fill="white"/>
<path d="M505.582 225.562V235.417C499.903 235.417 495.299 231.004 495.299 225.562V215.707C500.978 215.707 505.582 220.12 505.582 225.562Z" fill="white"/>
<path d="M442.284 225.562V235.417C436.605 235.417 432 231.004 432 225.562V215.707C437.682 215.707 442.284 220.12 442.284 225.562Z" fill="white"/>
<path d="M551.919 210.782H546.779C543.939 210.782 541.638 208.574 541.638 205.855H546.779C549.615 205.853 551.919 208.06 551.919 210.782Z" fill="white"/>
<path d="M541.635 205.852V215.707C541.635 221.149 537.031 225.562 531.352 225.562V215.707C531.355 210.264 535.956 205.852 541.635 205.852Z" fill="white"/>
<path d="M582.803 215.799C582.803 215.814 582.803 215.829 582.803 215.843C582.8 215.832 582.8 215.814 582.803 215.799Z" fill="white"/>
<path d="M603.364 225.654C603.364 231.097 598.763 235.509 593.084 235.509H582.8C582.8 230.067 587.402 225.654 593.084 225.654C587.436 225.654 582.853 221.292 582.803 215.891C582.803 215.876 582.803 215.861 582.803 215.847C582.803 215.832 582.803 215.817 582.803 215.802C582.853 210.401 587.436 206.039 593.084 206.039H603.364C603.364 211.161 599.286 215.372 594.068 215.847C599.286 216.321 603.364 220.532 603.364 225.654Z" fill="white"/>
<path d="M582.803 215.847C582.803 215.862 582.803 215.876 582.803 215.891C582.8 215.876 582.8 215.859 582.803 215.847Z" fill="white"/>
<path d="M555.808 205.855C555.808 205.87 555.808 205.885 555.808 205.9C555.805 205.885 555.805 205.87 555.808 205.855Z" fill="white"/>
<path d="M555.808 225.473C555.808 225.488 555.808 225.502 555.808 225.517C555.805 225.502 555.805 225.488 555.808 225.473Z" fill="white"/>
<path d="M567.076 225.517C572.291 225.992 576.372 230.203 576.372 235.325H566.088C560.44 235.325 555.857 230.963 555.808 225.562C555.808 225.547 555.808 225.532 555.808 225.517C555.808 225.503 555.808 225.488 555.808 225.473C555.857 220.072 560.44 215.707 566.088 215.707C560.44 215.707 555.857 211.345 555.808 205.944C555.808 205.929 555.808 205.914 555.808 205.899C555.808 205.885 555.808 205.87 555.808 205.855C555.857 200.454 560.443 196.092 566.088 196.092H576.372C576.372 201.214 572.291 205.425 567.076 205.899C572.291 206.374 576.372 210.585 576.372 215.707C576.372 220.832 572.291 225.04 567.076 225.517Z" fill="white"/>
<path d="M555.808 205.899C555.808 205.914 555.808 205.929 555.808 205.944C555.805 205.929 555.805 205.914 555.808 205.899Z" fill="white"/>
<path d="M628 225.654C628 231.097 623.395 235.509 617.716 235.509V225.654C612.068 225.654 607.486 221.292 607.436 215.891C607.436 215.876 607.436 215.861 607.436 215.847C607.436 215.832 607.436 215.817 607.436 215.802C607.436 215.802 607.436 215.802 607.436 215.799C607.486 210.398 612.072 206.036 617.716 206.036H628C628 211.158 623.919 215.369 618.704 215.844C623.922 216.321 628 220.532 628 225.654Z" fill="white"/>
<path d="M612.579 230.488H617.72C617.72 233.209 615.419 235.414 612.579 235.414H607.439C607.436 232.696 609.74 230.488 612.579 230.488Z" fill="white"/>
<path d="M526.146 215.71C526.146 215.725 526.146 215.74 526.146 215.755C526.146 215.77 526.146 215.785 526.146 215.799C526.097 221.2 521.511 225.562 515.866 225.562H505.582C505.582 220.438 509.664 216.23 514.878 215.755C509.661 215.28 505.582 211.069 505.582 205.947H515.866C521.511 205.944 526.097 210.309 526.146 215.71Z" fill="white"/>
<path d="M442.284 200.926C442.284 203.647 439.983 205.852 437.143 205.852H432C432 203.131 434.304 200.926 437.14 200.926C434.304 200.926 432 198.721 432 196H437.14C439.983 196 442.284 198.208 442.284 200.926Z" fill="white"/>
</g>
<defs>
<clipPath id="clip0">
<rect width="1440" height="2880" fill="white"/>
</clipPath>
</defs>
</svg>
