<svg width="349" height="53" viewBox="0 0 349 53" fill="none" xmlns="http://www.w3.org/2000/svg">
<path d="M160.715 23.7844V36.9282C153.143 36.9282 147 31.0408 147 23.7844V10.6406C154.58 10.6406 160.715 16.528 160.715 23.7844Z" fill="black"/>
<path d="M51.9625 13.1507C51.9212 13.1507 51.8799 13.1507 51.8386 13.1507C51.8799 13.1425 51.9212 13.1425 51.9625 13.1507Z" fill="black"/>
<path d="M13.7152 39.4297C13.6739 39.4297 13.6326 39.4297 13.5913 39.4297C13.6326 39.4379 13.6739 39.4297 13.7152 39.4297Z" fill="black"/>
<path d="M13.5916 39.4297C13.5502 39.4297 13.5089 39.4297 13.4592 39.4297C13.5006 39.4297 13.5502 39.438 13.5916 39.4297Z" fill="black"/>
<path d="M288.6 39.4307C288.559 39.4307 288.517 39.4307 288.468 39.4307C288.509 39.4307 288.55 39.4389 288.6 39.4307Z" fill="black"/>
<path d="M302.183 13.1436V26.2873C302.183 33.4645 296.18 39.2965 288.715 39.431C288.674 39.431 288.633 39.431 288.591 39.431C288.55 39.431 288.501 39.431 288.459 39.431C281.003 39.3044 275 33.4645 275 26.2873V13.1436C281.944 13.1436 287.683 18.0893 288.591 24.5068C289.5 18.0893 295.247 13.1436 302.183 13.1436Z" fill="black"/>
<path d="M288.723 39.4307C288.682 39.4307 288.641 39.4307 288.6 39.4307C288.641 39.4389 288.682 39.4307 288.723 39.4307Z" fill="black"/>
<path d="M132.314 13.1517C132.272 13.1517 132.223 13.1517 132.181 13.1517C132.231 13.1434 132.272 13.1434 132.314 13.1517Z" fill="black"/>
<path d="M27.1827 13.1436V26.2873C27.1827 33.4645 21.1797 39.2965 13.7152 39.431C13.6739 39.431 13.6326 39.431 13.5913 39.431C13.5501 39.431 13.5005 39.431 13.4592 39.431C6.00298 39.3044 0 33.4724 0 26.2952V13.1515C6.9443 13.1515 12.683 18.0972 13.5913 24.5147C14.4996 18.0893 20.2384 13.1436 27.1827 13.1436Z" fill="black"/>
<path d="M74.1827 26.6594V39.8031C67.2384 39.8031 61.4996 34.8574 60.5913 28.4398C59.683 34.8574 53.9443 39.8031 47 39.8031V26.6594C47 19.4821 53.003 13.6422 60.4675 13.5156C60.5088 13.5156 60.5501 13.5156 60.5913 13.5156C60.6326 13.5156 60.6739 13.5156 60.7152 13.5156C68.1797 13.6422 74.1827 19.4742 74.1827 26.6594Z" fill="black"/>
<path d="M126.183 26.6594V39.8031C119.238 39.8031 113.5 34.8653 112.591 28.4477C111.683 34.8653 105.944 39.8031 99 39.8031V26.6594C99 19.4821 105.003 13.6422 112.467 13.5156C112.509 13.5156 112.55 13.5156 112.6 13.5156C112.641 13.5156 112.682 13.5156 112.723 13.5156C120.18 13.6422 126.183 19.4742 126.183 26.6594Z" fill="black"/>
<path d="M173.723 26.2946H166.862C163.072 26.2946 160 23.3509 160 19.7188H166.862C170.652 19.7188 173.723 22.6625 173.723 26.2946Z" fill="black"/>
<path d="M200.906 26.2939V39.4377C200.906 46.6149 194.903 52.4469 187.439 52.5814C187.397 52.5814 187.356 52.5814 187.315 52.5814C187.274 52.5814 187.224 52.5814 187.183 52.5814C179.726 52.4548 173.724 46.6149 173.724 39.4377V26.2939C180.668 26.2939 186.407 31.2397 187.315 37.6493C188.223 31.2318 193.962 26.2939 200.906 26.2939Z" fill="black"/>
<path d="M187.439 52.5742C187.397 52.5742 187.356 52.5742 187.315 52.5742C187.356 52.5825 187.397 52.5742 187.439 52.5742Z" fill="black"/>
<path d="M200.906 13.1438V26.2875C193.962 26.2875 188.223 21.3418 187.315 14.9321C186.407 21.3497 180.668 26.2875 173.724 26.2875V13.1438C173.724 5.96652 179.726 0.134524 187.183 0C187.224 0 187.265 0 187.315 0C187.356 0 187.397 0 187.439 0C194.895 0.134524 200.906 5.96652 200.906 13.1438Z" fill="black"/>
<path d="M187.315 0.00718123C187.274 0.00718123 187.224 0.00718123 187.183 0.00718123C187.232 -0.00109166 187.274 -0.00109166 187.315 0.00718123Z" fill="black"/>
<path d="M187.315 52.5742C187.274 52.5742 187.232 52.5742 187.183 52.5742C187.224 52.5742 187.274 52.5825 187.315 52.5742Z" fill="black"/>
<path d="M262.154 39.4138C262.154 46.6702 256.011 52.5576 248.439 52.5576C240.867 52.5576 234.724 46.6702 234.724 39.4138H248.439C240.875 39.4138 234.748 33.5502 234.724 26.3176V13.1738C242.279 13.1738 248.414 19.0295 248.439 26.2701C256.011 26.2622 262.154 32.1496 262.154 39.4138Z" fill="black"/>
<path d="M227.862 13.1738H234.723C234.723 16.806 231.652 19.7496 227.862 19.7496H221C221.008 16.1096 224.072 13.1738 227.862 13.1738Z" fill="black"/>
<path d="M334.6 39.4541C334.558 39.4541 334.517 39.4541 334.467 39.4541C334.509 39.4541 334.55 39.4624 334.6 39.4541Z" fill="black"/>
<path d="M348.183 13.1738V26.3176C348.183 33.4948 342.18 39.3268 334.723 39.4613C334.682 39.4613 334.641 39.4613 334.6 39.4613C334.558 39.4613 334.509 39.4613 334.468 39.4613C327.011 39.3347 321 33.4948 321 26.3176V13.1738C327.944 13.1738 333.683 18.1195 334.591 24.5292C335.508 18.1116 341.238 13.1738 348.183 13.1738Z" fill="black"/>
<path d="M334.723 39.4541C334.682 39.4541 334.641 39.4541 334.6 39.4541C334.641 39.4624 334.682 39.4541 334.723 39.4541Z" fill="black"/>
<path d="M341.329 0.0224609C341.329 3.65459 338.258 6.59827 334.467 6.59827H327.606C327.606 2.96614 330.677 0.0224609 334.467 0.0224609H341.329Z" fill="black"/>
</svg>
