<svg width="196" height="40" viewBox="0 0 196 40" fill="none" xmlns="http://www.w3.org/2000/svg">
<path d="M56.7281 19.7075V29.5626C51.3835 29.5626 46.9895 25.6514 46.4941 20.6542C45.9987 25.6514 41.6047 29.5626 36.2601 29.5626C30.9155 29.5626 26.5185 25.6514 26.023 20.6542C25.5276 25.6514 21.1336 29.5626 15.7891 29.5626V19.7075C15.7891 14.2948 20.3409 9.90295 25.9766 9.85547C25.9921 9.85547 26.0076 9.85547 26.023 9.85547C26.0385 9.85547 26.054 9.85547 26.0695 9.85547C31.7051 9.90295 36.257 14.2978 36.257 19.7075C36.257 14.2948 40.8089 9.90295 46.4446 9.85547C46.46 9.85547 46.4755 9.85547 46.491 9.85547C46.5065 9.85547 46.522 9.85547 46.5374 9.85547C52.1762 9.90295 56.7281 14.2978 56.7281 19.7075Z" fill="white"/>
<path d="M73.5825 29.5621V39.4171C67.9035 39.4171 63.299 35.0045 63.299 29.5621V19.707C68.978 19.707 73.5825 24.1197 73.5825 29.5621Z" fill="white"/>
<path d="M10.2835 29.5621V39.4171C4.60451 39.4171 0 35.0045 0 29.5621V19.707C5.6821 19.707 10.2835 24.1197 10.2835 29.5621Z" fill="white"/>
<path d="M119.919 14.7815H114.779C111.939 14.7815 109.638 12.5737 109.638 9.85547H114.779C117.615 9.8525 119.919 12.0603 119.919 14.7815Z" fill="white"/>
<path d="M109.635 9.85156V19.7066C109.635 25.149 105.031 29.5616 99.3517 29.5616V19.7066C99.3548 14.2642 103.956 9.85156 109.635 9.85156Z" fill="white"/>
<path d="M150.803 19.7988C150.803 19.8137 150.803 19.8286 150.803 19.8434C150.8 19.8315 150.8 19.8137 150.803 19.7988Z" fill="white"/>
<path d="M171.364 29.6542C171.364 35.0966 166.763 39.5092 161.084 39.5092H150.8C150.8 34.0668 155.402 29.6542 161.084 29.6542C155.436 29.6542 150.853 25.292 150.803 19.8911C150.803 19.8763 150.803 19.8615 150.803 19.8466C150.803 19.8318 150.803 19.8169 150.803 19.8021C150.853 14.4013 155.436 10.0391 161.084 10.0391H171.364C171.364 15.161 167.286 19.3718 162.068 19.8466C167.286 20.3214 171.364 24.5323 171.364 29.6542Z" fill="white"/>
<path d="M150.803 19.8467C150.803 19.8615 150.803 19.8764 150.803 19.8913C150.8 19.8764 150.8 19.8586 150.803 19.8467Z" fill="white"/>
<path d="M123.808 9.85547C123.808 9.87033 123.808 9.88519 123.808 9.90006C123.805 9.88519 123.805 9.87033 123.808 9.85547Z" fill="white"/>
<path d="M123.808 29.4727C123.808 29.4875 123.808 29.5024 123.808 29.5172C123.805 29.5024 123.805 29.4875 123.808 29.4727Z" fill="white"/>
<path d="M135.076 29.5174C140.291 29.9922 144.372 34.2031 144.372 39.325H134.088C128.44 39.325 123.857 34.9628 123.808 29.562C123.808 29.5471 123.808 29.5323 123.808 29.5174C123.808 29.5026 123.808 29.4878 123.808 29.4729C123.857 24.0721 128.44 19.7069 134.088 19.7069C128.44 19.7069 123.857 15.3447 123.808 9.94387C123.808 9.92903 123.808 9.9142 123.808 9.89936C123.808 9.88452 123.808 9.86968 123.808 9.85485C123.857 4.45401 128.443 0.0917969 134.088 0.0917969H144.372C144.372 5.21369 140.291 9.42456 135.076 9.89936C140.291 10.3742 144.372 14.585 144.372 19.7069C144.372 24.8318 140.291 29.0397 135.076 29.5174Z" fill="white"/>
<path d="M123.808 9.89941C123.808 9.91428 123.808 9.92914 123.808 9.944C123.805 9.92914 123.805 9.91428 123.808 9.89941Z" fill="white"/>
<path d="M196 29.6542C196 35.0966 191.395 39.5093 185.716 39.5093V29.6542C180.068 29.6542 175.486 25.292 175.436 19.8912C175.436 19.8763 175.436 19.8615 175.436 19.8467C175.436 19.8318 175.436 19.817 175.436 19.8021C175.436 19.8021 175.436 19.8021 175.436 19.7992C175.486 14.3983 180.072 10.0361 185.716 10.0361H196C196 15.158 191.919 19.3689 186.704 19.8437C191.922 20.3215 196 24.5323 196 29.6542Z" fill="white"/>
<path d="M180.579 34.4883H185.72C185.72 37.2095 183.419 39.4143 180.579 39.4143H175.439C175.436 36.6961 177.74 34.4883 180.579 34.4883Z" fill="white"/>
<path d="M94.1463 19.7103C94.1463 19.7252 94.1463 19.74 94.1463 19.7548C94.1463 19.7697 94.1463 19.7845 94.1463 19.7993C94.0968 25.2002 89.5109 29.5624 83.8659 29.5624H73.5824C73.5824 24.4375 77.6636 20.2296 82.8781 19.7548C77.6605 19.28 73.5824 15.0692 73.5824 9.94727H83.8659C89.5109 9.9443 94.0968 14.3095 94.1463 19.7103Z" fill="white"/>
<path d="M10.2835 4.92604C10.2835 7.64723 7.98281 9.85208 5.14331 9.85208H0C0 7.13089 2.30381 4.92604 5.14021 4.92604C2.30381 4.92604 0 2.72119 0 0H5.14021C7.98281 0 10.2835 2.20782 10.2835 4.92604Z" fill="white"/>
</svg>
