<svg width="291" height="475" viewBox="0 0 291 475" fill="none" xmlns="http://www.w3.org/2000/svg">
<mask id="mask0" mask-type="alpha" maskUnits="userSpaceOnUse" x="0" y="0" width="292" height="475">
<path d="M98.9907 449.788L6.49713 475L6.05329 471.714L86.4 449.788L4.24045e-05 426.22L86.4 402.594L4.44674e-05 379.026L86.4 355.457L4.65279e-05 331.888L86.4 308.319L4.85908e-05 284.694L86.4 261.125L5.06512e-05 237.557L86.4 213.931L5.27141e-05 190.363L86.4 166.794L5.47746e-05 143.225L86.4 119.6L5.68375e-05 96.0312L86.4 72.4625L5.89004e-05 48.837L86.4 25.2685L6.05331 3.28611L6.49715 -4.04302e-06L98.9503 25.2685L12.5504 48.837L98.9907 72.4625L12.5908 96.0312L98.9907 119.6L12.5908 143.225L98.9907 166.794L12.5908 190.363L98.9907 213.931L12.5908 237.557L98.9907 261.125L12.5908 284.694L98.9907 308.319L12.5908 331.888L98.9907 355.457L12.5908 379.026L98.9907 402.594L12.5908 426.22L98.9907 449.788Z" fill="#1D1D1B"/>
<path d="M126.392 449.788L33.9391 475L33.4952 471.714L113.842 449.788L27.4419 426.22L113.842 402.594L27.4419 379.026L113.842 355.457L27.4419 331.888L113.842 308.319L27.4419 284.694L113.842 261.125L27.4419 237.557L113.842 213.931L27.4419 190.363L113.842 166.794L27.4419 143.225L113.842 119.6L27.4419 96.0312L113.842 72.4625L27.4419 48.837L113.842 25.2685L33.4952 3.28611L33.9392 -4.04126e-06L126.392 25.2685L39.9924 48.837L126.392 72.4625L39.9924 96.0312L126.392 119.6L39.9924 143.225L126.392 166.794L39.9924 190.363L126.392 213.931L39.9924 237.557L126.392 261.125L39.9924 284.694L126.392 308.319L39.9924 331.888L126.392 355.457L39.9924 379.026L126.392 402.594L39.9924 426.22L126.392 449.788Z" fill="#1D1D1B"/>
<path d="M153.833 449.788L61.3796 475L60.9357 471.714L141.282 449.788L54.8825 426.22L141.282 402.594L54.8825 379.026L141.282 355.457L54.8825 331.888L141.282 308.319L54.8825 284.694L141.282 261.125L54.8825 237.557L141.282 213.931L54.8825 190.363L141.282 166.794L54.8825 143.225L141.282 119.6L54.8825 96.0312L141.282 72.4625L54.8825 48.837L141.282 25.2685L60.9357 3.28611L61.3796 -4.04126e-06L153.833 25.2685L67.4328 48.837L153.833 72.4625L67.4328 96.0312L153.833 119.6L67.4328 143.225L153.833 166.794L67.4328 190.363L153.833 213.931L67.4328 237.557L153.833 261.125L67.4328 284.694L153.833 308.319L67.4328 331.888L153.833 355.457L67.4328 379.026L153.833 402.594L67.4328 426.22L153.833 449.788Z" fill="#1D1D1B"/>
<path d="M181.273 449.788L88.8202 475L88.3763 471.714L168.683 449.788L82.2827 426.22L168.683 402.594L82.2827 379.026L168.683 355.457L82.2827 331.888L168.683 308.319L82.2827 284.694L168.683 261.125L82.2827 237.557L168.683 213.931L82.2827 190.363L168.683 166.794L82.2827 143.225L168.683 119.6L82.2827 96.0312L168.683 72.4625L82.3231 48.837L168.723 25.2685L88.3763 3.28611L88.8203 -4.04126e-06L181.273 25.2685L94.8735 48.837L181.273 72.4625L94.8735 96.0312L181.273 119.6L94.8735 143.225L181.273 166.794L94.8735 190.363L181.273 213.931L94.8735 237.557L181.273 261.125L94.8735 284.694L181.273 308.319L94.8735 331.888L181.273 355.457L94.8735 379.026L181.273 402.594L94.8735 426.22L181.273 449.788Z" fill="#1D1D1B"/>
<path d="M208.718 449.788L116.265 475L115.78 471.714L196.127 449.788L109.727 426.22L196.127 402.594L109.727 379.026L196.127 355.457L109.727 331.888L196.127 308.319L109.727 284.694L196.127 261.125L109.727 237.557L196.127 213.931L109.727 190.363L196.127 166.794L109.727 143.225L196.127 119.6L109.727 96.0312L196.127 72.4625L109.727 48.837L196.127 25.2685L115.78 3.28611L116.265 -4.04126e-06L208.718 25.2685L122.318 48.837L208.718 72.4625L122.318 96.0312L208.718 119.6L122.318 143.225L208.718 166.794L122.318 190.363L208.718 213.931L122.318 237.557L208.718 261.125L122.318 284.694L208.718 308.319L122.318 331.888L208.718 355.457L122.318 379.026L208.718 402.594L122.318 426.22L208.718 449.788Z" fill="#1D1D1B"/>
<path d="M236.159 449.788L143.706 475L143.221 471.714L223.568 449.788L137.168 426.22L223.568 402.594L137.168 379.026L223.568 355.457L137.168 331.888L223.568 308.319L137.168 284.694L223.568 261.125L137.168 237.557L223.568 213.931L137.168 190.363L223.568 166.794L137.168 143.225L223.568 119.6L137.168 96.0312L223.568 72.4625L137.168 48.837L223.568 25.2685L143.222 3.28611L143.706 -4.04126e-06L236.119 25.2685L149.759 48.837L236.159 72.4625L149.759 96.0312L236.159 119.6L149.759 143.225L236.159 166.794L149.759 190.363L236.159 213.931L149.759 237.557L236.159 261.125L149.759 284.694L236.159 308.319L149.759 331.888L236.159 355.457L149.759 379.026L236.159 402.594L149.759 426.22L236.159 449.788Z" fill="#1D1D1B"/>
<path d="M263.56 449.788L171.107 475L170.663 471.714L251.009 449.788L164.61 426.22L251.009 402.594L164.61 379.026L251.009 355.457L164.61 331.888L251.009 308.319L164.61 284.694L251.009 261.125L164.61 237.557L251.009 213.931L164.61 190.363L251.009 166.794L164.61 143.225L251.009 119.6L164.61 96.0312L251.009 72.4625L164.61 48.837L251.009 25.2685L170.663 3.28611L171.107 -4.04126e-06L263.56 25.2685L177.16 48.837L263.56 72.4625L177.16 96.0312L263.56 119.6L177.16 143.225L263.56 166.794L177.16 190.363L263.56 213.931L177.16 237.557L263.56 261.125L177.16 284.694L263.56 308.319L177.16 331.888L263.56 355.457L177.16 379.026L263.56 402.594L177.2 426.22L263.56 449.788Z" fill="#1D1D1B"/>
<path d="M291 449.788L198.547 475L198.103 471.714L278.45 449.788L192.05 426.22L278.45 402.594L192.05 379.026L278.45 355.457L192.05 331.888L278.45 308.319L192.05 284.694L278.45 261.125L192.05 237.557L278.45 213.931L192.05 190.363L278.45 166.794L192.05 143.225L278.45 119.6L192.05 96.0312L278.45 72.4625L192.05 48.837L278.45 25.2685L198.103 3.28611L198.547 -4.04125e-06L291 25.2685L204.6 48.837L291 72.4625L204.6 96.0312L291 119.6L204.6 143.225L291 166.794L204.6 190.363L291 213.931L204.6 237.557L291 261.125L204.6 284.694L291 308.319L204.6 331.888L291 355.457L204.6 379.026L291 402.594L204.6 426.22L291 449.788Z" fill="#1D1D1B"/>
</mask>
<g mask="url(#mask0)">
<path d="M1 25.29H293V449.711H1V25.29Z" fill="black"/>
</g>
</svg>
