<svg width="344" height="53" viewBox="0 0 344 53" fill="none" xmlns="http://www.w3.org/2000/svg">
<path d="M123.43 26.05V12.9062C115.859 12.9062 109.715 18.7936 109.715 26.05H123.43Z" fill="black"/>
<path d="M123.439 39.1937C123.439 46.371 117.436 52.2109 109.971 52.3375C109.93 52.3375 109.889 52.3375 109.847 52.3375C109.806 52.3375 109.756 52.3375 109.715 52.3375C102.259 52.2109 96.256 46.371 96.256 39.1937H109.715C102.143 39.1937 96 33.3064 96 26.05V12.9062C103.572 12.9062 109.715 18.7936 109.715 26.05C117.295 26.05 123.43 31.9295 123.439 39.1937Z" fill="black"/>
<path d="M252.573 39.0751C259.27 39.9456 264.43 45.4452 264.43 52.1002H250.715C243.226 52.1002 237.132 46.3473 237 39.1938C237 39.1543 237 39.1147 237 39.0751C237 39.0355 237 38.996 237 38.9564C237.132 31.8109 243.226 26.0501 250.715 26.0501C243.226 26.0501 237.132 20.2972 237 13.1437C237 13.1042 237 13.0646 237 13.025C237 12.9855 237 12.9459 237 12.9064C237.132 5.76078 243.226 0 250.715 0H264.43C264.43 6.65496 259.27 12.1546 252.573 13.025C259.27 13.8955 264.43 19.3951 264.43 26.0501C264.439 32.705 259.27 38.2047 252.573 39.0751Z" fill="black"/>
<path d="M329.715 39.2414V52.3851C322.143 52.3851 316 46.4977 316 39.2414V26.0977C323.572 26.0977 329.715 31.985 329.715 39.2414Z" fill="black"/>
<path d="M343.43 26.0977V39.2414C343.43 46.4977 337.287 52.3851 329.715 52.3851V39.2414C329.715 31.985 335.859 26.0977 343.43 26.0977Z" fill="black"/>
<path d="M201.154 39.1941C201.154 46.4584 195.01 52.3379 187.439 52.3379C179.858 52.3379 173.723 46.4505 173.723 39.1941H187.439C179.875 39.1941 173.748 33.3384 173.723 26.0978V12.9541C181.279 12.9541 187.414 18.8177 187.439 26.0504C195.01 26.0504 201.154 31.9298 201.154 39.1941Z" fill="black"/>
<path d="M166.862 12.9541H173.723C173.723 16.5862 170.652 19.5299 166.862 19.5299H160C160 15.8978 163.072 12.9541 166.862 12.9541Z" fill="black"/>
<path d="M54.3654 26.0978V39.2415C47.4211 39.2415 41.6823 34.3037 40.774 27.8862C39.8657 34.3037 34.127 39.2415 27.1827 39.2415C20.2384 39.2415 14.4996 34.3037 13.5913 27.8862C12.683 34.3037 6.9443 39.2415 0 39.2415V26.0978C0 18.9206 6.00298 13.0807 13.4592 12.9541C13.5005 12.9541 13.5418 12.9541 13.5913 12.9541C13.6326 12.9541 13.6739 12.9541 13.7152 12.9541C21.1714 13.0807 27.1827 18.9206 27.1827 26.0978C27.1827 18.9206 33.1857 13.0807 40.6419 12.9541C40.6832 12.9541 40.7245 12.9541 40.774 12.9541C40.8153 12.9541 40.8566 12.9541 40.8979 12.9541C48.3624 13.0886 54.3654 18.9206 54.3654 26.0978Z" fill="black"/>
<path d="M336.569 12.9541C336.569 16.5862 333.497 19.5299 329.707 19.5299H322.845C322.845 15.8978 325.917 12.9541 329.707 12.9541H336.569Z" fill="black"/>
</svg>
