<svg width="520" height="53" viewBox="0 0 520 53" fill="none" xmlns="http://www.w3.org/2000/svg">
<path d="M116.255 26.4679C116.255 26.5074 116.255 26.547 116.255 26.5945C116.255 26.634 116.255 26.6736 116.255 26.7132C116.123 33.8587 110.029 39.6116 102.54 39.6116H88.8333C88.8333 32.9566 93.994 27.457 100.682 26.5866C93.9857 25.7161 88.8333 20.2165 88.8333 13.5615H102.548C110.038 13.5615 116.123 19.3223 116.255 26.4679Z" fill="black"/>
<path d="M116.264 26.4678C116.264 26.5075 116.264 26.5472 116.264 26.5949C116.264 26.5472 116.255 26.5075 116.264 26.4678Z" fill="black"/>
<path d="M88.8248 39.6115V52.7552C81.253 52.7552 75.1096 46.8679 75.1096 39.6115V26.4678C82.6897 26.4678 88.8248 32.3551 88.8248 39.6115Z" fill="black"/>
<path d="M403.519 13.3164V26.4602H389.803C389.803 19.2038 395.947 13.3164 403.519 13.3164Z" fill="black"/>
<path d="M403.519 26.4678V52.51C396.029 52.51 389.936 46.7571 389.803 39.6115C389.803 39.572 389.803 39.5324 389.803 39.4928C389.803 39.4533 389.803 39.4058 389.803 39.3662C389.936 32.2206 396.029 26.4678 403.519 26.4678Z" fill="black"/>
<path d="M440.453 39.3665H451.526C451.526 46.6229 445.383 52.5103 437.811 52.5103V13.3164C445.391 13.3164 451.526 19.2038 451.526 26.4601C451.526 32.8619 446.762 38.1874 440.453 39.3665Z" fill="black"/>
<path d="M430.949 39.3653C430.949 39.4049 430.949 39.4444 430.949 39.4919C430.949 39.5315 430.949 39.571 430.949 39.6106C430.817 46.7562 424.723 52.509 417.234 52.509H403.519C403.519 45.8541 408.679 40.3544 415.376 39.484C408.679 38.6136 403.527 33.1139 403.519 26.459H417.234C424.723 26.459 430.817 32.2197 430.949 39.3653Z" fill="black"/>
<path d="M492.561 26.4132C492.561 26.4528 492.561 26.4923 492.561 26.5398C492.561 26.5794 492.561 26.6189 492.561 26.6585C492.429 33.8041 486.335 39.5569 478.846 39.5569H465.131C465.131 32.902 470.292 27.4023 476.98 26.5319C470.283 25.6614 465.131 20.1618 465.131 13.5068H478.846C486.344 13.5147 492.429 19.2676 492.561 26.4132Z" fill="black"/>
<path d="M492.57 26.4131C492.57 26.4528 492.57 26.4925 492.57 26.5402C492.57 26.5005 492.561 26.4528 492.57 26.4131Z" fill="black"/>
<path d="M520 39.5648H506.285C498.795 39.5648 492.71 33.8119 492.57 26.6663C492.57 26.6268 492.57 26.5872 492.57 26.5476C492.57 26.5081 492.57 26.4606 492.57 26.421C492.702 19.2754 498.795 13.5146 506.285 13.5146H520C520 20.1696 514.847 25.6693 508.151 26.5397C514.839 27.4102 520 32.9098 520 39.5648Z" fill="black"/>
<path d="M323.23 13.2687V26.4124C316.286 26.4124 310.547 21.4746 309.639 15.0571C308.731 21.4746 302.992 26.4124 296.048 26.4124V13.2687C296.048 6.0915 302.051 0.25161 309.515 0.125C309.556 0.125 309.598 0.125 309.647 0.125C309.688 0.125 309.73 0.125 309.771 0.125C317.227 0.259523 323.23 6.0915 323.23 13.2687Z" fill="black"/>
<path d="M323.23 26.4131V39.5568C323.23 46.734 317.227 52.566 309.771 52.7006C309.73 52.7006 309.688 52.7006 309.647 52.7006C309.606 52.7006 309.556 52.7006 309.515 52.7006C302.059 52.574 296.048 46.734 296.048 39.5568V26.4131C302.992 26.4131 308.731 31.3588 309.639 37.7685C310.547 31.3588 316.286 26.4131 323.23 26.4131Z" fill="black"/>
<path d="M141.399 39.5566C141.357 39.5566 141.316 39.5566 141.266 39.5566C141.316 39.5566 141.357 39.5649 141.399 39.5566Z" fill="black"/>
<path d="M204.756 39.5648H191.041C183.551 39.5648 177.458 33.8119 177.326 26.6663C177.326 26.6268 177.326 26.5872 177.326 26.5476C177.326 26.5081 177.326 26.4606 177.326 26.421C177.458 19.2754 183.551 13.5146 191.041 13.5146H204.756C204.756 20.1696 199.603 25.6693 192.907 26.5397C199.603 27.4102 204.756 32.9098 204.756 39.5648Z" fill="black"/>
<path d="M267.332 26.4123V39.556C259.76 39.556 253.616 33.6687 253.616 26.4123V13.2686C261.188 13.2686 267.332 19.148 267.332 26.4123Z" fill="black"/>
<path d="M232.186 26.4132C232.186 26.4528 232.186 26.4923 232.186 26.5398C232.186 26.5794 232.186 26.6189 232.186 26.6585C232.054 33.8041 225.96 39.5569 218.471 39.5569H204.756C204.756 32.902 209.917 27.4023 216.613 26.5319C209.917 25.6614 204.756 20.1618 204.756 13.5068H218.471C225.969 13.5147 232.054 19.2676 232.186 26.4132Z" fill="black"/>
<path d="M232.195 26.4131C232.195 26.4528 232.195 26.4925 232.195 26.5402C232.195 26.5005 232.186 26.4528 232.195 26.4131Z" fill="black"/>
<path d="M211.618 46.1871V52.7629C207.828 52.7629 204.756 49.8193 204.756 46.1871C204.756 49.8193 201.684 52.7629 197.894 52.7629V46.1871C197.894 42.555 200.966 39.6113 204.756 39.6113C208.546 39.6113 211.618 42.555 211.618 46.1871Z" fill="black"/>
<path d="M281.047 19.8367H274.185C270.395 19.8367 267.323 16.8929 267.323 13.2607H274.185C277.975 13.2687 281.047 16.2124 281.047 19.8367Z" fill="black"/>
<path d="M158.99 13.2686V26.4123C158.99 33.5895 152.987 39.4294 145.531 39.556C145.489 39.556 145.448 39.556 145.407 39.556C145.365 39.556 145.316 39.556 145.275 39.556C137.818 39.4294 131.807 33.5895 131.807 26.4123V13.2686C138.751 13.2686 144.49 18.2143 145.398 24.6239C146.307 18.2143 152.046 13.2686 158.99 13.2686Z" fill="black"/>
<path d="M141.522 39.5566C141.481 39.5566 141.44 39.5566 141.398 39.5566C141.44 39.5649 141.481 39.5566 141.522 39.5566Z" fill="black"/>
<path d="M246.755 13.2686H253.617C253.617 16.9007 250.545 19.8444 246.755 19.8444H239.893C239.893 16.2122 242.965 13.2686 246.755 13.2686Z" fill="black"/>
<path d="M357.191 13.2686V26.4123C357.191 33.6687 351.048 39.556 343.476 39.556V26.4123C343.476 19.148 349.611 13.2686 357.191 13.2686Z" fill="black"/>
<path d="M370.906 32.9803C370.906 36.6125 367.835 39.5562 364.045 39.5562H357.183C357.183 35.924 360.255 32.9803 364.045 32.9803C360.255 32.9803 357.183 30.0445 357.183 26.4124C357.183 22.7803 360.255 19.8366 364.045 19.8366C360.255 19.8366 357.183 16.8929 357.183 13.2607H364.045C367.835 13.2607 370.906 16.2044 370.906 19.8366C370.906 23.445 367.868 26.3808 364.111 26.4124C364.094 26.4124 364.069 26.4124 364.053 26.4124H364.111C367.868 26.4441 370.906 29.3719 370.906 32.9803Z" fill="black"/>
<path d="M54.869 13.3164V26.4602C54.869 33.6374 48.866 39.4694 41.4015 39.6039C41.3603 39.6039 41.319 39.6039 41.2777 39.6039C41.2364 39.6039 41.1869 39.6039 41.1456 39.6039C33.6893 39.4773 27.6863 33.6374 27.6863 26.4602C27.6863 33.6374 21.6834 39.4694 14.2189 39.6039C14.1776 39.6039 14.1363 39.6039 14.095 39.6039C14.0537 39.6039 14.0042 39.6039 13.9629 39.6039C6.50664 39.4773 0.503662 33.6374 0.503662 26.4602V13.3164C7.44796 13.3164 13.1867 18.2621 14.095 24.6797C15.0033 18.2621 20.742 13.3164 27.6863 13.3164C34.6306 13.3164 40.3694 18.2621 41.2777 24.6797C42.186 18.2621 47.933 13.3164 54.869 13.3164Z" fill="black"/>
<path d="M14.2271 39.6045C14.1858 39.6045 14.1446 39.6045 14.1033 39.6045C14.1446 39.6127 14.1858 39.6045 14.2271 39.6045Z" fill="black"/>
<path d="M41.2862 39.6045C41.2448 39.6045 41.2034 39.6045 41.1538 39.6045C41.1952 39.6045 41.2365 39.6128 41.2862 39.6045Z" fill="black"/>
<path d="M13.9712 39.6045C14.0126 39.6045 14.0539 39.6045 14.1036 39.6045C14.0622 39.6128 14.0208 39.6128 13.9712 39.6045Z" fill="black"/>
<path d="M41.4099 39.6045C41.3686 39.6045 41.3273 39.6045 41.286 39.6045C41.3273 39.6127 41.3686 39.6045 41.4099 39.6045Z" fill="black"/>
</svg>
