<svg width="274" height="274" viewBox="0 0 274 274" fill="none" xmlns="http://www.w3.org/2000/svg">
<path fill-rule="evenodd" clip-rule="evenodd" d="M126.572 52.4277C133.456 35.8061 137 17.9911 137 0C137 17.9911 140.544 35.806 147.429 52.4276C154.313 69.0492 164.405 84.152 177.126 96.8736C189.848 109.595 204.951 119.687 221.572 126.572C238.194 133.456 256.009 137 274 137C256.009 137 238.194 140.544 221.572 147.428C204.951 154.313 189.848 164.405 177.126 177.126C164.405 189.848 154.313 204.951 147.429 221.572C140.544 238.194 137 256.009 137 274C137 256.009 133.456 238.194 126.572 221.572C119.687 204.951 109.595 189.848 96.8737 177.126C84.152 164.405 69.0493 154.313 52.4277 147.428C35.8061 140.544 17.9911 137 0 137C17.9911 137 35.806 133.456 52.4276 126.572C69.0492 119.687 84.152 109.595 96.8736 96.8737C109.595 84.152 119.687 69.0493 126.572 52.4277ZM0 137C0 212.663 61.337 274 137 274C212.663 274 274 212.663 274 137C274 61.337 212.663 0 137 0C61.337 0 0 61.337 0 137Z" fill="black"/>
</svg>
