<svg width="425" height="291" viewBox="0 0 425 291" fill="none" xmlns="http://www.w3.org/2000/svg">
<g clip-path="url(#clip0)">
<mask id="mask0" mask-type="alpha" maskUnits="userSpaceOnUse" x="-26" y="0" width="476" height="291">
<path d="M424.6 192L449.8 284.5L446.5 284.9L424.6 204.6L401 291L377.4 204.6L353.8 291L330.2 204.6L306.7 291L283.1 204.6L259.5 291L235.9 204.6L212.3 291L188.7 204.6L165.1 291L141.5 204.6L118 291L94.4003 204.6L70.8003 291L47.2003 204.6L23.6003 291L0.100283 204.6L-21.8997 284.9L-25.1997 284.5L0.100282 192L23.6003 278.4L47.2003 192L70.8003 278.4L94.4003 192L118 278.4L141.6 192L165.2 278.4L188.7 192L212.3 278.4L235.9 192L259.5 278.4L283.1 192L306.7 278.4L330.2 192L353.8 278.4L377.4 192L401 278.4L424.6 192Z" fill="#1D1D1B"/>
<path d="M424.6 164.6L449.8 257.1L446.5 257.5L424.6 177.2L401 263.6L377.4 177.2L353.8 263.6L330.2 177.2L306.6 263.6L283 177.2L259.4 263.6L235.8 177.2L212.2 263.6L188.6 177.2L165 263.6L141.4 177.2L118 263.6L94.4002 177.2L70.8002 263.6L47.2002 177.2L23.6002 263.6L0.000186958 177.2L-21.9998 257.5L-25.2998 257.1L0.000186407 164.6L23.6002 251L47.2002 164.6L70.8002 251L94.4002 164.6L118 251L141.6 164.6L165.1 251L188.7 164.6L212.3 251L235.9 164.6L259.5 251L283.1 164.6L306.7 251L330.3 164.6L353.8 251L377.4 164.6L401 251L424.6 164.6Z" fill="#1D1D1B"/>
<path d="M424.6 137.2L449.8 229.7L446.5 230.1L424.6 149.8L401 236.1L377.4 149.7L353.8 236.1L330.2 149.7L306.6 236.1L283 149.7L259.4 236.1L235.8 149.7L212.2 236.1L188.6 149.7L165 236.1L141.4 149.7L118 236.1L94.4002 149.7L70.8002 236.1L47.2002 149.7L23.6002 236.1L0.000186958 149.7L-21.9998 230L-25.2998 229.6L0.000186407 137.1L23.6002 223.6L47.2002 137.2L70.8002 223.6L94.4002 137.2L118 223.6L141.6 137.2L165.2 223.6L188.8 137.2L212.4 223.6L236 137.2L259.6 223.6L283.2 137.2L306.8 223.6L330.4 137.2L354 223.6L377.6 137.2L401 223.6L424.6 137.2Z" fill="#1D1D1B"/>
<path d="M424.6 109.7L449.8 202.2L446.5 202.6L424.6 122.3L401 208.7L377.4 122.3L353.8 208.7L330.2 122.3L306.6 208.7L283 122.3L259.4 208.7L235.8 122.3L212.2 208.7L188.6 122.3L165 208.7L141.4 122.3L118 208.7L94.4002 122.3L70.8002 208.7L47.2002 122.3L23.6002 208.7L0.000186958 122.3L-21.9998 202.6L-25.2998 202.2L0.000186407 109.7L23.6002 196.1L47.2002 109.7L70.8002 196.1L94.4002 109.7L118 196.1L141.6 109.7L165.2 196.1L188.8 109.7L212.4 196.1L236 109.7L259.6 196.1L283.2 109.7L306.8 196.1L330.4 109.7L354 196.1L377.6 109.7L401 196.1L424.6 109.7Z" fill="#1D1D1B"/>
<path d="M424.6 82.2998L449.8 174.8L446.5 175.3L424.6 94.9998L401 181.3L377.4 94.8998L353.8 181.3L330.2 94.8998L306.6 181.3L283 94.8998L259.4 181.3L235.8 94.8998L212.2 181.3L188.6 94.8998L165 181.3L141.4 94.8998L118 181.3L94.4002 94.8998L70.8002 181.3L47.2002 94.8998L23.6002 181.3L0.000186958 94.8998L-21.9998 175.2L-25.2998 174.7L0.000186403 82.1998L23.6002 168.6L47.2002 82.1998L70.8002 168.6L94.4002 82.1998L118 168.7L141.6 82.2998L165.2 168.7L188.8 82.2998L212.4 168.7L236 82.2998L259.6 168.7L283.2 82.2998L306.8 168.7L330.4 82.2998L354 168.7L377.6 82.2998L401 168.7L424.6 82.2998Z" fill="#1D1D1B"/>
<path d="M424.6 54.7998L449.8 147.3L446.5 147.8L424.6 67.4998L401 153.8L377.4 67.3998L353.8 153.8L330.2 67.3998L306.6 153.8L283 67.3998L259.4 153.8L235.8 67.3998L212.2 153.8L188.6 67.3998L165 153.8L141.4 67.3998L118 153.8L94.4002 67.3998L70.8002 153.8L47.2002 67.3998L23.6002 153.8L0.000186958 67.3998L-21.9998 147.7L-25.2998 147.2L0.000186407 54.7998L23.6002 141.2L47.2002 54.7998L70.8002 141.2L94.4002 54.7998L118 141.2L141.6 54.7998L165.2 141.2L188.8 54.7998L212.4 141.2L236 54.7998L259.6 141.2L283.2 54.7998L306.8 141.2L330.4 54.7998L354 141.2L377.6 54.7998L401 141.2L424.6 54.7998Z" fill="#1D1D1B"/>
<path d="M424.6 27.3999L449.8 119.9L446.5 120.3L424.6 39.9999L401 126.4L377.4 39.9999L353.8 126.4L330.2 39.9999L306.6 126.4L283 39.9999L259.4 126.4L235.8 39.9999L212.2 126.4L188.6 39.9999L165 126.4L141.4 39.9999L118 126.4L94.4003 39.9999L70.8003 126.4L47.2003 39.9999L23.6003 126.4L0.100283 39.9999L-21.8997 120.3L-25.1997 119.9L0.100282 27.3999L23.7003 113.8L47.3003 27.3999L70.9003 113.8L94.5003 27.3999L118 113.8L141.6 27.3999L165.2 113.8L188.8 27.3999L212.4 113.8L236 27.3999L259.6 113.8L283.2 27.3999L306.8 113.8L330.4 27.3999L354 113.8L377.6 27.3999L401 113.8L424.6 27.3999Z" fill="#1D1D1B"/>
<path d="M424.6 -0.000111218L449.8 92.4999L446.5 92.8999L424.6 12.5999L401 98.8999L377.4 12.4999L353.8 98.8999L330.2 12.4999L306.6 98.8999L283 12.4999L259.4 98.8999L235.8 12.4999L212.2 98.8999L188.6 12.4999L165 98.8999L141.4 12.4999L118 98.8999L94.4002 12.4999L70.8002 98.8999L47.2002 12.4999L23.6002 98.8999L0.000186958 12.4999L-21.9998 92.7999L-25.2998 92.3999L0.100187 -9.2663e-05L23.7002 86.3999L47.2002 -9.47218e-05L70.8002 86.3999L94.4002 -9.6785e-05L118 86.3999L141.6 -9.88482e-05L165.2 86.3999L188.8 -0.000100911L212.4 86.3999L236 -0.000102975L259.6 86.3999L283.2 -0.000105038L306.8 86.3999L330.4 -0.000107101L354 86.3999L377.6 -0.000109164L401 86.3999L424.6 -0.000111218Z" fill="#1D1D1B"/>
</mask>
<g mask="url(#mask0)">
<path d="M0.100098 290L0.100085 -2L424.5 -2.00002L424.5 290L0.100098 290Z" fill="black"/>
</g>
</g>
<defs>
<clipPath id="clip0">
<rect width="291" height="425" fill="white" transform="translate(0 291) rotate(-90)"/>
</clipPath>
</defs>
</svg>
