<svg width="291" height="425" viewBox="0 0 291 425" fill="none" xmlns="http://www.w3.org/2000/svg">
<g clip-path="url(#clip0)">
<mask id="mask0" mask-type="alpha" maskUnits="userSpaceOnUse" x="0" y="-26" width="291" height="476">
<path d="M99 424.6L6.5 449.8L6.1 446.5L86.4 424.6L0 401L86.4 377.4L0 353.8L86.4 330.2L0 306.7L86.4 283.1L0 259.5L86.4 235.9L0 212.3L86.4 188.7L0 165.1L86.4 141.5L0 118L86.4 94.4003L0 70.8003L86.4 47.2003L0 23.6003L86.4 0.100294L6.1 -21.8997L6.5 -25.1997L99 0.100294L12.6 23.6003L99 47.2003L12.6 70.8003L99 94.4003L12.6 118L99 141.6L12.6 165.2L99 188.7L12.6 212.3L99 235.9L12.6 259.5L99 283.1L12.6 306.7L99 330.2L12.6 353.8L99 377.4L12.6 401L99 424.6Z" fill="#1D1D1B"/>
<path d="M126.4 424.6L33.8999 449.8L33.4999 446.5L113.8 424.6L27.3999 401L113.8 377.4L27.3999 353.8L113.8 330.2L27.3999 306.6L113.8 283L27.3999 259.4L113.8 235.8L27.3999 212.2L113.8 188.6L27.3999 165L113.8 141.4L27.3999 118L113.8 94.4002L27.3999 70.8002L113.8 47.2002L27.3999 23.6002L113.8 0.00019455L33.4999 -21.9998L33.8999 -25.2998L126.4 0.00019455L39.9999 23.6002L126.4 47.2002L39.9999 70.8002L126.4 94.4002L39.9999 118L126.4 141.6L39.9999 165.1L126.4 188.7L39.9999 212.3L126.4 235.9L39.9999 259.5L126.4 283.1L39.9999 306.7L126.4 330.3L39.9999 353.8L126.4 377.4L39.9999 401L126.4 424.6Z" fill="#1D1D1B"/>
<path d="M153.8 424.6L61.2999 449.8L60.8999 446.5L141.2 424.6L54.8999 401L141.3 377.4L54.8999 353.8L141.3 330.2L54.8999 306.6L141.3 283L54.8999 259.4L141.3 235.8L54.8999 212.2L141.3 188.6L54.8999 165L141.3 141.4L54.8999 118L141.3 94.4002L54.8999 70.8002L141.3 47.2002L54.8999 23.6002L141.3 0.00019455L60.9999 -21.9998L61.3999 -25.2998L153.9 0.00019455L67.3999 23.6002L153.8 47.2002L67.3999 70.8002L153.8 94.4002L67.3999 118L153.8 141.6L67.3999 165.2L153.8 188.8L67.3999 212.4L153.8 236L67.3999 259.6L153.8 283.2L67.3999 306.8L153.8 330.4L67.3999 354L153.8 377.6L67.3999 401L153.8 424.6Z" fill="#1D1D1B"/>
<path d="M181.3 424.6L88.8 449.8L88.4 446.5L168.7 424.6L82.3 401L168.7 377.4L82.3 353.8L168.7 330.2L82.3 306.6L168.7 283L82.3 259.4L168.7 235.8L82.3 212.2L168.7 188.6L82.3 165L168.7 141.4L82.3 118L168.7 94.4002L82.3 70.8002L168.7 47.2002L82.3 23.6002L168.7 0.00019455L88.4 -21.9998L88.8 -25.2998L181.3 0.00019455L94.9 23.6002L181.3 47.2002L94.9 70.8002L181.3 94.4002L94.9 118L181.3 141.6L94.9 165.2L181.3 188.8L94.9 212.4L181.3 236L94.9 259.6L181.3 283.2L94.9 306.8L181.3 330.4L94.9 354L181.3 377.6L94.9 401L181.3 424.6Z" fill="#1D1D1B"/>
<path d="M208.7 424.6L116.2 449.8L115.7 446.5L196 424.6L109.7 401L196.1 377.4L109.7 353.8L196.1 330.2L109.7 306.6L196.1 283L109.7 259.4L196.1 235.8L109.7 212.2L196.1 188.6L109.7 165L196.1 141.4L109.7 118L196.1 94.4002L109.7 70.8002L196.1 47.2002L109.7 23.6002L196.1 0.00019455L115.8 -21.9998L116.3 -25.2998L208.8 0.00019455L122.4 23.6002L208.8 47.2002L122.4 70.8002L208.8 94.4002L122.3 118L208.7 141.6L122.3 165.2L208.7 188.8L122.3 212.4L208.7 236L122.3 259.6L208.7 283.2L122.3 306.8L208.7 330.4L122.3 354L208.7 377.6L122.3 401L208.7 424.6Z" fill="#1D1D1B"/>
<path d="M236.2 424.6L143.7 449.8L143.2 446.5L223.5 424.6L137.2 401L223.6 377.4L137.2 353.8L223.6 330.2L137.2 306.6L223.6 283L137.2 259.4L223.6 235.8L137.2 212.2L223.6 188.6L137.2 165L223.6 141.4L137.2 118L223.6 94.4002L137.2 70.8002L223.6 47.2002L137.2 23.6002L223.6 0.00019455L143.3 -21.9998L143.8 -25.2998L236.2 0.00019455L149.8 23.6002L236.2 47.2002L149.8 70.8002L236.2 94.4002L149.8 118L236.2 141.6L149.8 165.2L236.2 188.8L149.8 212.4L236.2 236L149.8 259.6L236.2 283.2L149.8 306.8L236.2 330.4L149.8 354L236.2 377.6L149.8 401L236.2 424.6Z" fill="#1D1D1B"/>
<path d="M263.6 424.6L171.1 449.8L170.7 446.5L251 424.6L164.6 401L251 377.4L164.6 353.8L251 330.2L164.6 306.6L251 283L164.6 259.4L251 235.8L164.6 212.2L251 188.6L164.6 165L251 141.4L164.6 118L251 94.4003L164.6 70.8003L251 47.2003L164.6 23.6003L251 0.100294L170.7 -21.8997L171.1 -25.1997L263.6 0.100294L177.2 23.7003L263.6 47.3003L177.2 70.9003L263.6 94.5003L177.2 118L263.6 141.6L177.2 165.2L263.6 188.8L177.2 212.4L263.6 236L177.2 259.6L263.6 283.2L177.2 306.8L263.6 330.4L177.2 354L263.6 377.6L177.2 401L263.6 424.6Z" fill="#1D1D1B"/>
<path d="M291 424.6L198.5 449.8L198.1 446.5L278.4 424.6L192.1 401L278.5 377.4L192.1 353.8L278.5 330.2L192.1 306.6L278.5 283L192.1 259.4L278.5 235.8L192.1 212.2L278.5 188.6L192.1 165L278.5 141.4L192.1 118L278.5 94.4002L192.1 70.8002L278.5 47.2002L192.1 23.6002L278.5 0.00019455L198.2 -21.9998L198.6 -25.2998L291 0.100195L204.6 23.7002L291 47.2002L204.6 70.8002L291 94.4002L204.6 118L291 141.6L204.6 165.2L291 188.8L204.6 212.4L291 236L204.6 259.6L291 283.2L204.6 306.8L291 330.4L204.6 354L291 377.6L204.6 401L291 424.6Z" fill="#1D1D1B"/>
</mask>
<g mask="url(#mask0)">
<path d="M1 0.100098H293V424.5H1V0.100098Z" fill="black"/>
</g>
</g>
<defs>
<clipPath id="clip0">
<rect width="291" height="424.5" fill="white"/>
</clipPath>
</defs>
</svg>
